<?xml version="1.0" encoding="UTF-8"?>
<svg id="Layer_1" data-name="Layer 1" xmlns="http://www.w3.org/2000/svg" viewBox="0 0 1010.42 789.21">
  <defs>
    <style>
      .cls-1 {
        fill: #a4e5ff;
      }

      .cls-2 {
        fill: #e5328e;
      }

      .cls-3 {
        fill: #4a00e0;
      }

      .cls-4 {
        fill: #fbfcf3;
      }

      .cls-5 {
        fill: #fcfeff;
      }

      .cls-6 {
        fill: #0fa6ba;
      }

      .cls-7 {
        fill: #e4ecef;
      }

      .cls-8 {
        fill: #22bcc7;
      }

      .cls-9 {
        fill: #6ed3d9;
      }
    </style>
  </defs>
  <path class="cls-3" d="m193.92,776.8c0-57.08-24.64-69.1-38.83-72.51-22.96-5.51-48.49,23.44-52.02,47.45-.03.2.11,2.36-.29,2.43-.38.07-1.01-1.77-1.14-2.14-1.41-3.91-7.24-11.02-12.1-13.82-8.05-4.64-19.2-.74-24.96,2.67-14.81,8.76-17.72,28.28-17.91,30.3-.03.27-.2,2.29-.38,2.29-.18,0-.26-2.02-.31-2.68-.26-3.67-2.45-9.36-6.36-11.99-5.46-3.67-12.97-.5-15.05.38-9.93,4.19-16.68,15.43-14.29,18.86.61.88,2.07,1.61,5.72,1.14"/>
  <g>
    <path class="cls-5" d="m283.71,693.39c3.46,2.93,6.7,6.17,9.71,9.7,1.98,2.31,3.22,2.36,5.79.62,3.93-2.66,8.03-5.06,12.41-7.01l-27.92-3.31Z"/>
    <path class="cls-7" d="m808.18,698.48c-8.88-1.5-25.59.34-35.34,3.83-.92.18-1.76.36-2.68.19-13.26,3.75-24.33,10.97-34.19,20.11-5.2,6.26-10.65,12.37-13.31,20.18-.96,2.84-2.35,1.52-3.74.38-7.4-6.05-15.06-11.72-24.42-14.75-1.62-.52-3.3-.96-4.99-1.18-6.37-.84-8.57-2.65-9.1-8.86-.27-3.18-.9-6.31-1.08-9.49-1.49-3.79-1.6-7.84-2.12-11.77-1.4-10.53-2.83-21.06-3.42-31.7-.67-12.14-2.26-24.24-2.28-36.43,0-1.78-.1-3.57-.15-5.35-.55-.47-.57-.95-.04-1.45-.01-.54-.02-1.08-.03-1.62-.06-.15-.15-.31-.18-.47-.01-.06.1-.14.15-.21,0-1.83-.01-3.65-.02-5.48-.47-.46-.48-.92-.02-1.39.03-1.83.06-3.66.09-5.49-.06-.16-.13-.31-.16-.47,0-.06.11-.14.17-.2.13-2.33.25-4.65.38-6.98-.16-.24-.15-.47.01-.7.01-1.31.02-2.62.04-3.93-.3-1.39-.6-2.82-2.62-2.42-2.84.57-5.66-.16-8.49,0-1.33,10.69-1.61,21.51-4.59,32.79-1.6-2.92-1.67-5.49-1.97-7.92-1.04-8.23-1.91-16.48-2.84-24.73-.93-.05-1.86-.1-2.79-.16-2.1.09-4.2.17-6.3.26-.36,9.55.44,19.06.81,28.59.96,25.03-.45,49.97-3.35,74.85-.58,4.97-1.05,9.95-1.76,14.91-.62,4.34-1.5,8.65-2.28,13.04-1.79-.25-2.24-1.76-3.01-2.84-11.57-16.19-34.52-14.7-45.42.23-2.13,2.92-3.84,3.22-7.15,1.88-7.54-3.07-15.68-3.21-23.72-3.44-2.54-.07-3.75-.68-4.15-3.35-3.21-20.91-15.07-35.16-35.7-42.52-1.74-.62-3.6-.95-4.83-2.46-.59-.51-.69-1.17-.64-1.88-.09-.65-.18-1.3-.27-1.95-.08-.16-.18-.31-.23-.47-.02-.06.09-.16.14-.24-.35-1.6-.71-3.19-1.06-4.79-.08-.25-.16-.49-.24-.74-.06-.48-.12-.96-.18-1.44-.19-.64-.37-1.29-.56-1.93.66-1.55-1.03-2.7-.76-4.19-.31-1.08-.7-2.14-.91-3.24-2.64-14.04-5.23-28.09-7.89-42.13-1.73-9.17-3.21-18.36-4.13-27.65-.67-6.74-2.11-13.41-2.95-20.14-1-8-1.81-16.03-2.53-24.06-.46-5.17-.19-10.42-.99-15.53-1.45-9.28-1.52-18.64-2.12-27.95-.52-8.01-.15-16.07-.17-24.11-.38-.52-.38-1.05-.04-1.59-.01-.48-.02-.95-.04-1.43-.45-.55-.49-1.11-.06-1.7,0-.44-.02-.88-.03-1.32-.48-.58-.48-1.17-.04-1.77,0-.43,0-.85,0-1.28-.45-.6-.46-1.19,0-1.79,0-.43.01-.86.02-1.28-.66-1.61-.59-3.21.05-4.81,0-.45,0-.91,0-1.36-.44-.57-.44-1.14,0-1.71,0-.45,0-.9,0-1.36-.46-.57-.46-1.14-.01-1.72,0-.44,0-.89,0-1.33-.47-.58-.47-1.16-.03-1.76.03-3.51.05-7.02.08-10.53-.41-.57-.42-1.13.02-1.69,0-.47.02-.95.02-1.42-.2-.79-.39-1.59-.59-2.38-5.23-1.24-10.5-.68-15.77-.33-.62,16.36-2.89,32.53-6.03,49.45-2.25-4.15-2.28-8.03-2.86-11.67-1.58-10.01-2.76-20.08-4.03-30.13-.31-2.46.79-5.06-.79-7.39-.55-.19-1.1-.38-1.65-.57-.45.05-.91.09-1.36.14-.4.41-.82.43-1.27.09-.66-.04-1.31-.09-1.97-.13-.57.4-1.16.45-1.77.08-1.62.15-3.25.3-4.87.45-.23,1.04-.46,2.07-.69,3.11.63,11.69,1.26,23.39,1.88,35.08.4.37.41.76.03,1.15.11,2.21.21,4.43.32,6.64.01.29.02.59.03.88.34,16.17.39,32.35-.72,48.48-.71,10.33-1.35,20.68-2.1,31.01-.6,8.24-1.52,16.43-2.45,24.62-1.03,9.07-2.11,18.14-3.43,27.17-.85,5.85-2.16,11.64-3.26,17.46-.77,5.48-2.23,10.87-2.26,16.43-.02,3.25-2.15,4.12-4.93,4.16-10.8.12-20.66,3.21-29.98,8.37-7.94,4.4-13.83,10.88-19.84,17.29-1.3,1.99-2.61,3.99-3.91,5.98-1.62,5.19-4.42,9.99-5.2,15.48-.27,1.91-1.96,2.42-4.01,1.68-3.73-1.35-7.65-1.89-11.62-2.08-.3-.02-21.17-2.5-21.46-2.41-37.49,11.9-23.35,12.35-59.15-3.26-10.81-4.71-20.48-5.74-29.11-4.07-32.81,6.36-51.42,58.66-58.26,78.79-4.47,13.13-6.87,24.37-8.22,31.98,106.42,3.38,226.36,11.88,350.48,8.51,145.07-3.94,308.05-5.5,349.21-7.79,7.23-.4-18.65-35.84-19.99-38.9,0,0-10.31-34.6-46.27-54.6Z"/>
    <path class="cls-5" d="m226.38,686.6l57.33,6.8c-8.55-7.26-18.46-12.58-29.81-15.24-9.15-2.15-18.61,1.45-27.52,8.44Z"/>
    <path class="cls-3" d="m858.64,761.53c-34.3-57.16-55.64-59.87-59.5-60.52-8.88-1.5-17.61-.44-26.3,1.29-.92.18-10.27,3.35-11.18,3.18,2.07-3.13,10.4-9.33,12.18-10.37,4.5-2.64,11.45-4.55,16.5-4.55,8.67.58,14.3.97,26.77,7.74,19.31,10.48,31.02,29.82,38.09,50.62,1.99,5.83,3.44,10.64,3.44,12.61Z"/>
    <path class="cls-1" d="m395.13,270.92c.74-1.23.27-2.57.38-3.86.18-.29.36-.59.54-.88.16-.16.25-.35.27-.57,1.19-.08,2.38-.23,3.56-.23,18.02.02,36.04.06,54.06.1,25.57.06,51.14.14,76.7.21.02,9.83.61,19.7-.09,29.49-.68,9.53-1.59,19.07-2.77,28.58-.57,4.62-1.38,9.26-1.67,13.93-.29,1.33-.83,2.56-1.04,3.96-1.23,8.4-3.85,16.49-5.98,24.69-2.02,7.75-5.78,14.93-7.37,22.77-1.1,1.56-2.2,3.12-3.3,4.68-11.13,0-22.26.02-33.39,0-1.94,0-4.19.44-4.15-2.63.15-13.85-1.1-27.62-2.08-41.42-.56-7.86-1.32-15.61-3.19-23.28-.37-1.53-1-3.17-2.31-3.12-1.31.05-2.28,1.79-2.55,3.21-1.89,9.69-3.41,19.46-3.88,29.28-.53,11.3-1.63,22.63-.89,33.96.22,3.4-1.25,4.05-4.39,4.02-11-.13-22-.02-33,0-1.12-1.4-2.24-2.81-3.35-4.21-.67-3.99-2.38-7.66-3.86-11.4-5.1-12.91-7.96-26.38-10.67-39.88-1.24-6.65-1.95-13.38-2.99-20.04-1.43-9.11-1.18-18.26-1.95-27.37-.47-5.57-.08-11.3-.38-16.96,1.06-1.09.71-2.07-.25-3Z"/>
    <path class="cls-3" d="m530.64,265.69c-25.57-.07-51.14-.14-76.7-.21-18.02-.04-36.04-.08-54.06-.1-1.19,0-2.38.15-3.56.23-1.98-5.02-.1-10.1.19-15.05.38-6.53.36-13.15,1.89-19.67,2.35-10,3.59-20.23,6.09-30.22.89-3.57,1.56-7.19,2.22-10.81.51-2.75,3.61-4.13,3.82-6.99,1.41-.14,2.82-.27,4.23-.4.4,0,.8,0,1.19-.01,1.05.08,2.1.24,3.15.24,19.03.02,38.07.07,57.1.03,11.36-.03,22.71-.21,34.07-.33.66.03,1.33.07,1.99.1,1.38.06,2.75.11,4.13.17,2.76,4.36,4.08,9.16,5.11,14.14,1.91,9.21,4.34,18.32,6.21,27.54,1.08,5.34,1.84,10.79,2.1,16.21.4,8.37,1.49,16.74.85,25.15Zm-40.76-59.86c-1.2-1.3-2.38-2.62-3.62-3.89-9.73-10.02-25.78-12.32-38.7-5.54-11.89,6.23-18.78,21.3-15.37,33.97,3.93,14.62,16.16,22.89,29.72,23.56,16.33.81,28.84-9.95,32.52-23.04,1.2-4.28.52-8.63.59-12.96,3.98-4.67,1.47-10.58-5.14-12.1Z"/>
    <path class="cls-1" d="m689.43,566.07c-.81,1.54-1.28,3.3-2.92,4.32-7.15-.1-14.31-.36-21.45-.23-3.02.05-3.81-.9-3.9-3.69-.33-9.86-.62-19.75-1.57-29.57-.47-4.84-.19-10.02-3-14.51-1.83.55-2.07,1.99-2.44,3.33-1.93,6.86-2.03,13.95-2.36,20.94-.34,7.1-1.54,14.19-.86,21.33.15,1.59-.46,2.21-2.26,2.18-7.95-.13-15.9-.11-23.85-.14-.52-.79-1.04-1.59-1.55-2.38-4.26-11.74-7.77-23.69-10.28-35.9-1.51-12.99-3.28-25.95-2.85-39.1.12-3.53-1.59-7.11.29-10.62.67.02,1.34.04,2.02.06.36.04.71.08,1.07.11,1.04.03,2.08.06,3.12.09,7.44.58,14.88.33,22.33.16.78,0,1.56.01,2.34.02.28,0,.56,0,.84,0,.78,0,1.56.01,2.34.02.28,0,.56,0,.83,0,.78,0,1.57,0,2.35,0,1.34,0,2.67,0,4.01,0,.78,0,1.57,0,2.35,0,.28,0,.56,0,.84,0,10.97,0,21.95-.05,32.92.05,4.88.05,9.77-.43,14.63.27.49,12.04-.56,23.97-2.06,35.91-.53,4.21-1.54,8.49-.92,12.82-.28.39-.69.74-.81,1.17-1.49,5.64-1.92,11.49-3.93,17.04-1.94,5.38-3.54,10.87-5.28,16.32Z"/>
    <path class="cls-3" d="m400.7,338.29c2.72,13.5,5.57,26.97,10.67,39.88,1.48,3.74,3.19,7.41,3.86,11.4-6.7,1.28-11.02,6.07-15.27,10.45-13.21,13.6-21.95,29.8-28.61,47.19-3.34,8.72-6.05,17.6-8.53,26.56-.19.7-.56,1.37-1,2.43-3.04-4.58-4.87-9.31-6.23-13.98-2.25-7.69-5.17-15.24-6.27-23.23-1.32-9.6-2.43-19.22-2.32-28.93.11-9.68.07-19.44,1.78-28.95,1.71-9.49,4.76-18.76,7.3-28.11,2.52-9.28,6.91-17.83,11.37-26.33.79-1.51,1.68-3.97,3.74-1.23,7.02,9.35,16.93,12.53,28.31,12.79.4,0,.79.03,1.19.05Z"/>
    <path class="cls-3" d="m511.72,389.09c1.59-7.84,5.35-15.02,7.37-22.77,2.14-8.2,4.75-16.3,5.98-24.69.21-1.4.75-2.63,1.04-3.96,11.41.82,21.25-2.34,28.57-11.09,2.25-2.69,3.27-1.6,4.48.46,7.88,13.34,12.88,27.79,16.04,42.69,2.43,11.44,3.96,23.09,4.3,34.88.52,17.71-1.68,34.95-6.9,51.95-2.03,6.6-4.21,13.07-7.8,19.49-1.43-4.43-2.98-8.82-4.27-13.28-5.49-19.01-13.36-37-25.29-53.12-5.16-6.97-11.42-13.07-18.52-18.27-1.44-1.05-3.32-1.54-5-2.28Z"/>
    <path class="cls-1" d="m512.25,182.48c-.66-.03-1.33-.07-1.99-.1-1.49-.73-3.11-.51-4.68-.51-28.32,0-56.64.01-84.95.05-1.57,0-3.19-.2-4.68.51-.4,0-.8,0-1.19.01-1.5-.43-3.01-.87-4.51-1.3,6.07-19.03,13.61-37.51,22.67-55.4,1.72-3.4,3.07-7.03,5.73-9.93,16.41.02,32.81.04,49.22.06,8.17,11.87,13.7,24.97,19,38.16,3.57,8.9,7.2,17.79,9.55,27.1-1.12,1.2-2.84.71-4.16,1.35Z"/>
    <path class="cls-3" d="m184.95,755.67c9.82-38.11,46.99-78.18,75.59-71.47,15.94,3.74,22.41,6.64,32.88,18.88,1.98,2.31,3.22,2.36,5.79.62,5.36-3.64,11.03-6.77,17.31-8.97,10.9-3.8,22.05-5.12,33.53-4.59.32-.3.62-.26.9.05,3.97.19,7.89.73,11.62,2.08,2.06.74,3.75.23,4.01-1.68.78-5.49,3.58-10.29,5.2-15.48-1.57-.21-3.15-.32-4.7-.63-13.27-2.65-26.56-2.82-39.62.71-9.34,2.53-19.04,4.65-25.89,12.34-2.33,2.62-4.78,1.28-6.65-1.02-6.85-8.44-15.64-14.62-25.16-19.89-15.17-8.4-31.69.77-46.91,13.33-22.53,19.36-33.6,53.63-38.21,75.52-.59,2.81-.69,4-1.26,7.45"/>
    <path class="cls-3" d="m644.47,482.5c-.78,0-1.56-.01-2.34-.02-.28,0-.56,0-.84,0-.78,0-1.56-.01-2.34-.02-7.43-1.05-14.88-.84-22.33-.16-1.04-.03-2.08-.06-3.12-.09-.36-.04-.71-.08-1.07-.11-.67-.02-1.34-.04-2.02-.06-.72-9.2.8-18.16,2.2-27.25,1.08-7.03,3.89-13.67,4.17-20.82.12-3.04,3.81-4.98,3.16-8.39,1.58.08,3.16.22,4.75.23,22.52.02,45.05.03,67.57.04.78,4.54,3.73,8.23,5.16,12.58,2.06,6.25,2.64,12.65,3.1,19.02.61,8.46,2.87,16.81,1.9,25.37-4.86-.7-9.76-.22-14.63-.27-10.97-.1-21.95-.04-32.92-.05-.28,0-.56,0-.84,0-.78,0-1.57,0-2.35,0-1.34-.79-2.67-.81-4.01,0-.78,0-1.57,0-2.35,0-.28,0-.56,0-.83,0Zm11.86-49.09c-13.23.05-21.94,8.42-22.25,20.69-.27,10.6,12.23,20.51,22.22,20.26,12.89-.32,21.29-10.05,21.51-20.32.22-10.07-8.61-22.3-21.49-20.63Z"/>
    <path class="cls-3" d="m418.59,393.78c11-.02,22-.12,33,0,3.15.04,4.61-.61,4.39-4.02-.74-11.33.36-22.65.89-33.96.46-9.81,1.99-19.59,3.88-29.28.28-1.42,1.24-3.16,2.55-3.21,1.31-.05,1.94,1.59,2.31,3.12,1.86,7.67,2.63,15.42,3.19,23.28.98,13.8,2.22,27.57,2.08,41.42-.03,3.07,2.22,2.63,4.15,2.63,11.13.01,22.26,0,33.39,0-.99,6.29-4.77,11.34-7.97,16.65-1.8.41-3.59.41-5.45.35-6.96-.23-13.94-.2-20.91-.24-2.02-.01-3.96.56-3.75,2.88.41,4.57-1.14,9.01-.66,13.55-.62,16.36-2.89,32.53-6.03,49.45-2.25-4.15-2.28-8.03-2.86-11.67-1.58-10.01-2.76-20.08-4.03-30.13-.31-2.46.79-5.06-.79-7.39-.06-.47-.13-.94-.19-1.41-.14-4.88,1.07-9.82-.74-14.62-.28-.03-.56-.06-.84-.09-.52-.06-1.04-.17-1.57-.18-8.96-.23-17.93-.45-26.89-.67-2.63-5.4-6.14-10.44-7.16-16.49Z"/>
    <path class="cls-3" d="m508.54,658.51c.66-1.55-1.03-2.7-.76-4.19,8.84-1.12,17.31.15,25.41,3.68,8.67,3.77,16.28,8.85,21.94,16.4,5.01,6.68,9.27,13.63,9.81,22.15.34,5.32,1.97,6.85,7.3,6.88,7.91.04,15.35,2.35,22.75,4.62,3.28,1.01,5.13.76,7.16-2.29,5.06-7.59,12.68-11.12,21.99-11.59,5.36-.27,10.49.4,15.45,2.32-.58,4.97-1.05,9.95-1.76,14.91-.62,4.34-1.5,8.65-2.28,13.04-1.79-.25-2.24-1.76-3.01-2.84-11.57-16.19-34.52-14.7-45.42.23-2.13,2.92-3.84,3.22-7.15,1.88-7.54-3.07-15.68-3.21-23.72-3.44-2.54-.07-3.75-.68-4.15-3.35-3.21-20.91-15.07-35.16-35.7-42.52-1.74-.62-3.6-.95-4.83-2.46.03-.7-.04-1.37-.64-1.88-.09-.65-.18-1.3-.27-1.95.09-.25.06-.49-.09-.71-.35-1.6-.71-3.19-1.06-4.79-.08-.25-.16-.49-.24-.74-.06-.48-.12-.96-.18-1.44.09-.72.02-1.4-.56-1.93Z"/>
    <path class="cls-3" d="m612.97,531.76c2.51,12.21,6.02,24.16,10.28,35.9-8.12,2.08-12.19,8.63-16.8,14.44-8.41,10.6-12.77,23.05-16.92,35.58-.98,2.96-1.53,6.02-2.48,9.12-3.07-5.57-5.43-11.33-6.86-17.32-6.95-29.16-3.78-57.25,9.94-84.19,1.35-2.66,2.24-3.03,4.28-.59,4.77,5.66,11.01,8.04,18.56,7.06Z"/>
    <path class="cls-3" d="m689.43,566.07c1.75-5.44,3.34-10.94,5.28-16.32,2.01-5.55,2.43-11.4,3.93-17.04.11-.43.53-.78.81-1.17,7.12,1.12,13.01-1.02,17.9-6.09,3.11-3.22,3.51-3.14,5.29.69,9.2,19.8,14.33,40.47,13.09,62.23-.77,13.37-4.2,26.28-10.23,39.09-1.67-2.66-1.46-5.22-2.16-7.51-4.84-15.7-10.41-31.03-21.99-43.58-3.01-3.26-6.06-6.44-10.21-8.37-.9-.42-1.56-.95-1.71-1.93Z"/>
    <path class="cls-1" d="m692.26,425.84c-22.52,0-45.05-.01-67.57-.04-1.58,0-3.16-.15-4.75-.23,3.15-12.6,8.5-24.41,14.11-36.11,1.57-3.27,2.35-7.1,5.9-9.22,11.05.04,22.1.08,33.14.12,3.28,3.75,4.86,8.38,6.99,12.72,4.74,9.64,8.07,19.83,12.23,29.69-.11.25-.07.47.13.67-.06.8-.12,1.6-.18,2.4Z"/>
    <path class="cls-3" d="m624.8,570.04c7.95.03,15.9,0,23.85.14,1.8.03,2.41-.59,2.26-2.18-.68-7.14.52-14.23.86-21.33.33-7,.43-14.09,2.36-20.94.38-1.33.61-2.77,2.44-3.33,2.81,4.49,2.53,9.66,3,14.51.95,9.82,1.24,19.7,1.57,29.57.09,2.79.89,3.75,3.9,3.69,7.15-.13,14.3.13,21.45.23.18,4.62-2.8,7.81-5.41,11.18-1.71,0-3.43-.06-5.13.04-4.94.28-9.95-.73-14.83.74-.19.2-.38.4-.57.6.03,3.29.06,6.57.09,9.86-1.33,10.69-1.61,21.52-4.59,32.79-1.6-2.92-1.67-5.49-1.97-7.92-1.04-8.23-1.91-16.48-2.84-24.72.29-1.28.5-2.56-.28-3.77,0-.78,0-1.57.01-2.35l.19-.25-.14-.26c.34-1.16.61-2.31-.07-3.45-.26-.23-.52-.46-.78-.69-6.37-1.3-12.82-.22-19.22-.62-2.41-3.66-4.49-7.5-6.15-11.53Z"/>
    <path class="cls-3" d="m487.86,115.88c-16.41-.02-32.82-.04-49.22-.06-.36-1.36.26-2.48.89-3.62,6.19-11.21,13.09-22.01,20.33-32.61.51-.74,1.03-1.49,1.64-2.16,1.61-1.8,2.92-1.67,4.34.38,6.37,9.2,12.2,18.71,17.69,28.41,1.74,3.07,4.57,5.74,4.33,9.66Z"/>
    <path class="cls-3" d="m735.98,722.6c-5.2,6.26-10.65,12.37-13.31,20.18-.96,2.84-2.35,1.52-3.74.38-7.4-6.05-15.06-11.72-24.42-14.75-1.62-.52-3.3-.96-4.99-1.18-6.37-.84-8.57-2.65-9.1-8.86-.27-3.18-.9-6.31-1.08-9.49,10.37-1.06,20.7.41,30.58,2.69,5.49,1.26,14.49,5.15,17.61,6.45,2.52,2.19,5.25,3.13,8.44,4.59Z"/>
    <path class="cls-3" d="m432.72,622.9c-.77,5.48-2.23,10.87-2.26,16.43-.02,3.25-2.15,4.12-4.93,4.16-10.8.12-20.66,3.21-29.98,8.37-7.94,4.4-17.74,16.86-23.75,23.27-1.62-4.61,3.62-14.42,6.28-18.51,4.09-6.29,9.02-11.64,14.33-17.03,8.2-8.33,18.37-11.77,29.11-14.65,3.64-.97,7.63-.48,11.19-2.04Z"/>
    <path class="cls-3" d="m673.09,380.36c-11.05-.04-22.1-.08-33.14-.12-.43-1.54-.35-3,.58-4.4,4.6-7,9.18-14.02,13.75-21.04.95-1.46,2.06-2.82,3.47-.6,5.07,7.92,10.88,15.42,14.92,23.93.32.67.29,1.48.42,2.23Z"/>
    <path class="cls-2" d="m469.68,426.97c-.49-4.54,1.06-8.99.66-13.55-.21-2.32,1.73-2.9,3.75-2.88,6.97.04,13.94.01,20.91.24,1.86.06,3.65.06,5.45-.35.9.93,1.92,1.8,1.4,3.3-1.04,2.97-.46,6.05-.55,9.07-.12,4.26-1.12,5.15-5.53,4.36-3.24-.58-6.44-1.22-9.63.13-.23-.02-.46-.01-.69.03-5.23-1.24-10.5-.68-15.77-.33Z"/>
    <path class="cls-2" d="m425.75,410.27c8.96.22,17.93.44,26.89.67.52.01,1.05.12,1.57.18.28.03.56.06.84.09,1.81,4.8.6,9.74.74,14.62-.49.28-.97.56-1.46.84-.45.05-.91.09-1.36.14-.42.03-.85.06-1.27.09-.66-.04-1.31-.09-1.97-.13-.59.03-1.18.06-1.77.08-1.62.15-3.25.3-4.87.45-1.06.52-.71,1.56-.97,2.39-.42-2.39-1.74-3.39-4.37-3.16-2.76.24-5.56-.02-8.33.07-2.74.09-3.81-1.11-3.74-3.69.1-4.21.06-8.42.07-12.63Z"/>
    <path class="cls-2" d="m661.14,582.35c4.88-1.47,9.89-.46,14.83-.74,1.71-.1,3.42-.03,5.13-.04,1.19,2.61.51,5.5,1.29,8.19.46,1.59-.76,2.29-2.26,2.39-1.31.09-2.65.21-3.92.02-2.59-.38-3.9.75-4.44,3.04-.3-1.39-.6-2.82-2.62-2.42-2.84.57-5.66-.16-8.49,0-.03-3.29-.06-6.58-.09-9.86.19-.2.38-.4.57-.6Z"/>
    <path class="cls-2" d="m650.96,582.88c.68,1.14.41,2.29.07,3.45-.09.16-.11.33-.05.51,0,.78,0,1.57-.01,2.35-1.17.99-2.07,2.15-2.51,3.61-2.1.09-4.2.17-6.3.26-2.53-1.65-5.37-.66-8.06-.8-2.07-.11-3.36-.65-3.12-2.85.29-2.62-1.3-5.23-.01-7.85,6.4.4,12.85-.68,19.22.62.26.23.52.46.78.69Z"/>
    <path class="cls-9" d="m395.13,270.92c.96.93,1.31,1.91.25,3-1.23-.91-1.15-1.93-.25-3Z"/>
    <path class="cls-9" d="m410.23,181.15c1.5.43,3.01.87,4.51,1.3-1.41.13-2.82.27-4.23.4-.61-.49-1.13-.99-.28-1.7Z"/>
    <path class="cls-9" d="m485.91,457.36c-.66-1.61-.59-3.21.05-4.81.44,1.61.43,3.21-.05,4.81Z"/>
    <path class="cls-9" d="m505.56,182.28c-.25-.9,9.73.05,10.85-1.15-.01.51-.02,1.01-.04,1.52-1.38-.06-9.44-.31-10.82-.37Z"/>
    <path class="cls-9" d="m442.12,429.67c.25-.82-.09-1.87.97-2.39-.23,1.04-.46,2.07-.69,3.11-.09-.24-.18-.48-.28-.73Z"/>
    <path class="cls-9" d="m485.45,427.3c.23-.04.46-.05.69-.03-.03.8-.07,1.6-.1,2.41-.2-.79-.39-1.59-.59-2.38Z"/>
    <path class="cls-9" d="m485.99,432.79c-.41-.57-.42-1.13.02-1.69,0,.56-.01,1.13-.02,1.69Z"/>
    <path class="cls-9" d="m485.9,460.44c-.45-.6-.46-1.19,0-1.79,0,.6,0,1.2,0,1.79Z"/>
    <path class="cls-9" d="m485.94,445.08c-.47-.58-.47-1.16-.03-1.76,0,.59.02,1.17.03,1.76Z"/>
    <path class="cls-9" d="m485.96,448.13c-.46-.57-.46-1.14-.01-1.72,0,.57,0,1.15.01,1.72Z"/>
    <path class="cls-4" d="m671.37,623.63c-.55-.47-.57-.95-.04-1.45.01.48.02.97.04,1.45Z"/>
    <path class="cls-4" d="m671.25,614.4c-.47-.46-.48-.92-.02-1.39,0,.46.01.93.02,1.39Z"/>
    <path class="cls-9" d="m485.94,463.49c-.48-.58-.48-1.17-.04-1.77.01.59.02,1.18.04,1.77Z"/>
    <path class="cls-9" d="m485.96,451.19c-.44-.57-.44-1.14,0-1.71,0,.57,0,1.14,0,1.71Z"/>
    <path class="cls-9" d="m486.03,466.51c-.45-.55-.49-1.11-.06-1.7.02.57.04,1.13.06,1.7Z"/>
    <path class="cls-9" d="m486.11,469.53c-.38-.52-.38-1.05-.04-1.59.01.53.03,1.06.04,1.59Z"/>
    <path class="cls-9" d="m396.04,266.18c-.18.29-.36.59-.54.88-.12-.46.1-.73.54-.88Z"/>
    <path class="cls-4" d="m671.3,620.56c-.06-.15-.15-.31-.18-.47-.01-.06.1-.14.15-.21.15.22.16.45.03.68Z"/>
    <path class="cls-4" d="m671.32,607.51c-.06-.16-.13-.31-.16-.47,0-.06.11-.14.17-.2.14.23.13.46-.01.68Z"/>
    <path class="cls-8" d="m671.71,599.86c-.16-.24-.15-.47.01-.7.07.17.16.33.19.5.01.06-.13.14-.2.21Z"/>
    <path class="cls-9" d="m444.64,473.28c.01.29.02.59.03.88-.08-.2-.18-.4-.22-.61-.01-.08.12-.18.19-.28Z"/>
    <path class="cls-9" d="m444.29,465.48c.4.37.41.76.03,1.15-.01-.38-.02-.77-.03-1.15Z"/>
    <path class="cls-8" d="m692.44,423.44c-.2-.19-.24-.42-.13-.67.1.15.22.28.29.44.02.05-.1.15-.16.23Z"/>
    <path class="cls-6" d="m648.45,592.81c.44-1.46,1.34-2.63,2.51-3.61.78,1.21.57,2.49.28,3.77-.93-.05-1.86-.11-2.79-.16Z"/>
    <path class="cls-9" d="m454.33,426.66c.49-.28.97-.56,1.46-.84.06.47.13.94.19,1.41-.55-.19-1.1-.38-1.65-.57Z"/>
    <path class="cls-4" d="m510.94,670.08c.59.51.67,1.18.64,1.88-.59-.51-.69-1.17-.64-1.88Z"/>
    <path class="cls-9" d="m447.96,426.84c.59-.03,1.18-.06,1.77-.08-.57.41-1.16.45-1.77.08Z"/>
    <path class="cls-4" d="m508.54,658.51c.58.54.65,1.21.56,1.93-.19-.64-.37-1.29-.56-1.93Z"/>
    <path class="cls-9" d="m350.06,690.16c.32-.3.62-.26.9.05-.3-.02-.6-.04-.9-.05Z"/>
    <path class="cls-4" d="m510.58,667.42c.15.22.18.46.09.71-.08-.16-.18-.31-.23-.47-.02-.06.09-.16.14-.24Z"/>
    <path class="cls-4" d="m509.29,661.89c.08.25.16.49.24.74-.08-.25-.16-.49-.24-.74Z"/>
    <path class="cls-9" d="m451.69,426.89c.42-.03.85-.06,1.27-.09-.39.41-.82.43-1.27.09Z"/>
    <path class="cls-2" d="m495.02,217.92c-.08,4.32.61,8.68-.59,12.96-3.68,13.09-16.19,23.85-32.52,23.04-13.55-.67-25.79-8.94-29.72-23.56-3.4-12.67,3.48-27.73,15.37-33.97,12.92-6.77,28.97-4.48,38.7,5.54,1.23,1.27,2.41,2.59,3.62,3.89,2.52,3.71,3.68,7.97,5.14,12.1Zm-27.87-17.19c-3.47-.88-6.66.1-10.03.95-9.25,2.33-16.2,9.96-17.2,19.11-1.4,12.94,9.24,26.54,26.18,24.73,13.67-1.46,20.84-11.77,20.61-22.97-.23-11.17-8.95-19.07-18.12-21.44-.48-.13-.96-.25-1.44-.38Z"/>
    <path class="cls-9" d="m410.44,182.38c1.5-.72,8.62-.45,10.19-.46,28.32-.04,56.64-.06,84.95-.05,1.57,0,3.19-.22,4.68.51-11.36.11-22.71.3-34.07.32-19.03.05-38.07,0-57.1-.03-1.05,0-7.6-.21-8.65-.3Z"/>
    <path class="cls-3" d="m495.02,217.92c-1.46-4.13-2.61-8.38-5.14-12.1,6.61,1.52,9.12,7.43,5.14,12.1Z"/>
    <path class="cls-9" d="m616.62,482.29c7.45-.67,14.89-.89,22.33.16-7.44.16-14.89.41-22.33-.16Z"/>
    <path class="cls-9" d="m647.66,482.5c1.33-.82,2.67-.8,4.01,0-1.34,0-2.67,0-4.01,0Z"/>
    <path class="cls-9" d="m654.02,482.49c.28,0,.56,0,.84,0-.28,0-.56,0-.84,0Z"/>
    <path class="cls-9" d="m644.47,482.5c.28,0,.56,0,.83,0-.28,0-.56,0-.83,0Z"/>
    <path class="cls-9" d="m641.28,482.48c.28,0,.56,0,.84,0-.28,0-.56,0-.84,0Z"/>
    <path class="cls-9" d="m612.43,482.09c.36.04.71.08,1.07.11-.36-.04-.71-.08-1.07-.11Z"/>
    <path class="cls-2" d="m656.33,433.41c12.87-1.67,21.71,10.56,21.49,20.63-.23,10.27-8.62,20-21.51,20.32-10,.25-22.49-9.66-22.22-20.26.31-12.27,9.02-20.64,22.25-20.69Zm15.97,20.13c-.03-9.15-7.1-15.73-16.84-15.68-8.11.04-15.78,7.7-15.75,15.72.04,8.01,8.02,15.91,16.09,15.93,9.56.02,16.53-6.72,16.5-15.96Z"/>
    <path class="cls-6" d="m455.05,411.2c-.28-.03-.56-.06-.84-.09.28.03.56.06.84.09Z"/>
    <path class="cls-6" d="m650.98,586.85c-.06-.18-.04-.35.05-.51,0,0,.13.27.13.27l-.19.25Z"/>
    <path class="cls-6" d="m661.14,582.35c-.19.2-.38.4-.57.6.19-.2.38-.4.57-.6Z"/>
    <path class="cls-6" d="m650.96,582.88c-.26-.23-.52-.46-.78-.69.26.23.52.46.78.69Z"/>
    <path class="cls-3" d="m468.59,201.11c9.17,2.37,17.9,10.27,18.12,21.44.23,11.21-6.94,21.52-20.61,22.97-16.93,1.8-27.58-11.8-26.18-24.73.99-9.15,7.94-16.78,17.2-19.11,3.37-.85,6.56-1.83,10.03-.95.48.13.96.25,1.44.38Z"/>
    <path class="cls-6" d="m468.59,201.11c-.48-.13-.96-.25-1.44-.38.48.13.96.25,1.44.38Z"/>
    <path class="cls-3" d="m672.3,453.54c.03,9.24-6.93,15.98-16.5,15.96-8.07-.02-16.05-7.92-16.09-15.93-.04-8.01,7.64-15.68,15.75-15.72,9.74-.05,16.81,6.54,16.84,15.68Z"/>
  </g>
  <path class="cls-7" d="m189.56,791.67c0-57.08-24.64-69.1-38.83-72.51-22.96-5.51-48.49,23.44-52.02,47.45-.03.2.11,2.36-.29,2.43-.38.07-1.01-1.77-1.14-2.14-1.41-3.91-7.24-11.02-12.1-13.82-8.05-4.64-19.2-.74-24.96,2.67-14.81,8.76-17.72,28.28-17.91,30.3-.03.27-.2,2.29-.38,2.29-.18,0-.26-2.02-.31-2.68-.26-3.67-2.45-9.36-6.36-11.99-5.46-3.67-12.97-.5-15.05.38-9.93,4.19-16.68,15.43-14.29,18.86.61.88,2.07,1.61,5.72,1.14"/>
  <path class="cls-3" d="m948.9,786.57c2.12-1.93,2.29-13.15,7-17.22,6.97-6.02,14.78-5.74,18.01-4.86,15.36,4.19,25.16,12.21,21.46,15.64-.95.88,9.04,8.76,3.4,8.3"/>
  <path class="cls-3" d="m860.2,770.49c2.18-3.91,11.57-16.87,16.75-20.47,10.92-7.6,28.02-10.56,36.94-7.15,22.93,8.76,27.05,30.38,27.34,32.39"/>
  <path class="cls-7" d="m719.52,791.67c0-57.08,38.13-69.1,60.1-72.51,30.88-4.79,64.75,16.44,76.69,37.84,1.57,2.81,2.76,5.62,3.51,8.38.11.41.22.82.31,1.23.05.2-.17,2.36.44,2.43.58.07,1.56-1.77,1.77-2.14,2.18-3.91,11.21-11.02,18.73-13.82,12.47-4.64,29.71-.74,38.64,2.67,22.93,8.76,27.43,28.28,27.72,30.3.04.27.17,2.49.22,2.22.29-1.64.25-1.62.32-2.29.4-3.67,4.32-9.69,10.37-12.31,8.45-3.67,22.32-1.98,25.55-1.1,15.36,4.19,30.48,21.27,29.27,21.55s-9.16.12-18.25-.06"/>
</svg>