<?xml version="1.0" encoding="UTF-8"?>
<svg id="Layer_2" data-name="Layer 2" xmlns="http://www.w3.org/2000/svg" viewBox="0 0 391.46 436.35">
  <defs>
    <style>
      .cls-1 {
        fill: #f7c103;
      }

      .cls-2 {
        fill: none;
      }

      .cls-3 {
        fill: #de345e;
      }

      .cls-4 {
        fill: #009adc;
      }
    </style>
  </defs>
  <g id="Capa_1" data-name="Capa 1">
    <path id="logo_final" data-name="logo final" class="cls-2" d="m261.67,52.38c-10.3,7.27-21.81,12.72-33.31,18.78-29.07,12.72-64.21,21.2-102.97,26.05-18.78,2.42-52.7,4.24-67.84,4.85-4.85,0-9.09,4.24-9.09,7.87v241.68c-6.66,0-12.72-.61-19.38-1.82l-19.99-1.82c-4.85-.61-9.09-4.24-9.09-9.09V72.97c0-4.85,4.85-9.09,9.69-7.87,16.35,2.42,50.88,6.66,92.07,7.87,44.82,2.42,109.03-6.66,159.91-20.59Zm63.6-24.83c-26.05,24.83-55.73,46.64-88.43,64.81-1.82.61-3.03,1.82-4.85,2.42-12.11,6.66-24.83,12.11-38.16,17.57-10.3,4.24-21.81,7.87-33.31,12.11-16.35,4.85-22.41,6.66-38.77,7.87h-2.42c-4.85.61-9.09,4.24-9.09,9.09v250.76c-13.93,2.42-27.26,3.03-41.79,4.24h-.61c-4.85,0-9.09-4.24-9.09-7.87V120.83c0-4.24,4.24-7.87,9.09-7.87,15.14-.61,49.06-1.82,67.84-4.85,38.77-5.45,73.9-13.93,102.97-26.05,23.62-10.3,43.61-24.83,64.81-39.37l19.38-13.93c1.21-.61,1.82-.61,2.42-1.21Zm46.03-16.35v168.39c-6.66,15.14-11.51,23.62-21.2,36.34-9.69,12.72-22.41,26.65-29.68,33.31l-9.69,7.87v2.42c1.82,26.05,1.82,41.79.61,64.81l-1.82,19.99c-29.07,21.81-61.78,38.77-90.86,52.7-36.34,16.96-67.84,27.26-84.19,32.1h0c-4.85.61-7.27-.61-7.87-1.82-1.82-.61-1.82-2.42-1.82-4.24V155.96c0-4.24,3.03-7.87,7.27-9.69l33.92-11.51c24.83-7.87,50.27-18.78,73.9-30.89,1.82-.61,3.03-1.82,4.85-2.42,34.53-18.78,66.63-41.79,93.88-69.66l24.23-23.62c3.63-2.42,8.48-.61,8.48,3.03Zm0,190.19v1.82l-50.27,129.62-.61.61.61-9.09c.61-22.41,1.82-38.77-.61-64.21l6.66-4.85c7.87-7.27,21.81-21.2,31.5-34.53,5.45-7.27,9.69-12.72,12.72-19.38Z"/>
    <g id="logo_final-2" data-name="logo final">
      <g>
        <path class="cls-4" d="m277.87,46.88c-10.86,7.52-22.55,13.36-34.25,19.21-30.07,13.36-65.99,21.72-106.08,26.73-19.21,2.51-54.29,4.18-70.16,5.01-5.01,0-9.19,4.18-9.19,8.35v249.75c-6.68,0-13.36-.84-20.05-1.67l-20.88-1.67c-5.01-.84-9.19-4.18-9.19-9.19V67.76c0-5.01,5.01-9.19,10.02-8.35,16.71,2.51,52.62,6.68,95.22,8.35,45.94,2.51,111.93-6.68,164.55-20.88Z"/>
        <path class="cls-1" d="m343.85,20.99c-26.73,25.89-57.63,48.45-91.05,66.82-1.67.84-3.34,1.67-5.01,2.51-12.53,6.68-25.89,12.53-39.26,18.38-10.86,4.18-22.55,8.35-34.25,12.53-16.71,5.01-23.39,6.68-40.09,8.35h-2.51c-5.01.84-9.19,4.18-9.19,9.19v258.94c-14.2,2.51-28.4,3.34-43.43,4.18h-.84c-5.01,0-9.19-4.18-9.19-8.35V117.05c0-4.18,4.18-8.35,9.19-8.35,15.87-.84,50.95-1.67,70.16-5.01,40.09-5.85,76.01-14.2,106.08-26.73,24.22-10.86,45.11-25.89,66.82-40.93l20.05-14.2c.84,0,1.67,0,2.51-.84Z"/>
        <g>
          <path class="cls-3" d="m391.46,4.28v173.74c-6.68,15.87-11.69,24.22-21.72,37.59-10.02,13.36-23.39,27.56-30.91,34.25l-10.02,8.35v2.51c1.67,26.73,1.67,43.43.84,66.82l-1.67,20.88c-30.07,22.55-63.48,40.09-93.55,54.29-37.59,17.54-70.16,28.4-86.87,33.41h0c-5.01.84-7.52-.84-8.35-1.67-1.67-.84-1.67-2.51-1.67-4.18V153.8c0-4.18,3.34-8.35,7.52-10.02l35.08-11.69c25.89-8.35,51.79-19.21,76.01-31.74,1.67-.84,3.34-1.67,5.01-2.51,35.92-19.21,68.49-43.43,96.89-71.83l25.06-24.22c3.34-3.34,8.35-1.67,8.35,2.51Z"/>
          <path class="cls-3" d="m391.46,200.57v1.67l-51.79,133.65-.84.84.84-9.19c.84-23.39,1.67-40.09-.84-65.99l6.68-5.01c8.35-7.52,22.55-21.72,32.58-35.92,5.85-7.52,10.02-13.36,13.36-20.05Z"/>
        </g>
      </g>
    </g>
  </g>
</svg>