<?xml version="1.0" encoding="UTF-8"?>
<svg id="Layer_2" data-name="Layer 2" xmlns="http://www.w3.org/2000/svg" viewBox="0 0 450.12 450.12">
  <defs>
    <style>
      .cls-1 {
        fill: #f7c103;
      }

      .cls-2 {
        fill: #333;
      }

      .cls-3 {
        fill: none;
      }

      .cls-4 {
        fill: #de345e;
      }

      .cls-5 {
        fill: #009adc;
      }
    </style>
  </defs>
  <g id="Capa_1" data-name="Capa 1">
    <rect class="cls-2" width="450.12" height="450.12" rx="58.71" ry="58.71"/>
    <path id="logo_final" data-name="logo final" class="cls-3" d="m301.13,59.32c-10.3,7.27-21.81,12.72-33.31,18.78-29.07,12.72-64.21,21.2-102.97,26.05-18.78,2.42-52.7,4.24-67.84,4.85-4.85,0-9.09,4.24-9.09,7.87v241.68c-6.66,0-12.72-.61-19.38-1.82l-19.99-1.82c-4.85-.61-9.09-4.24-9.09-9.09V79.92c0-4.85,4.85-9.09,9.69-7.87,16.35,2.42,50.88,6.66,92.07,7.87,44.82,2.42,109.03-6.66,159.91-20.59Zm63.6-24.83c-26.05,24.83-55.73,46.64-88.43,64.81-1.82.61-3.03,1.82-4.85,2.42-12.11,6.66-24.83,12.11-38.16,17.57-10.3,4.24-21.81,7.87-33.31,12.11-16.35,4.85-22.41,6.66-38.77,7.87h-2.42c-4.85.61-9.09,4.24-9.09,9.09v250.76c-13.93,2.42-27.26,3.03-41.79,4.24h-.61c-4.85,0-9.09-4.24-9.09-7.87V127.77c0-4.24,4.24-7.87,9.09-7.87,15.14-.61,49.06-1.82,67.84-4.85,38.77-5.45,73.9-13.93,102.97-26.05,23.62-10.3,43.61-24.83,64.81-39.37l19.38-13.93c1.21-.61,1.82-.61,2.42-1.21Zm46.03-16.35v168.39c-6.66,15.14-11.51,23.62-21.2,36.34-9.69,12.72-22.41,26.65-29.68,33.31l-9.69,7.87v2.42c1.82,26.05,1.82,41.79.61,64.81l-1.82,19.99c-29.07,21.81-61.78,38.77-90.86,52.7-36.34,16.96-67.84,27.26-84.19,32.1h0c-4.85.61-7.27-.61-7.87-1.82-1.82-.61-1.82-2.42-1.82-4.24V162.9c0-4.24,3.03-7.87,7.27-9.69l33.92-11.51c24.83-7.87,50.27-18.78,73.9-30.89,1.82-.61,3.03-1.82,4.85-2.42,34.53-18.78,66.63-41.79,93.88-69.66l24.23-23.62c3.63-2.42,8.48-.61,8.48,3.03Zm0,190.19v1.82l-50.27,129.62-.61.61.61-9.09c.61-22.41,1.82-38.77-.61-64.21l6.66-4.85c7.87-7.27,21.81-21.2,31.5-34.53,5.45-7.27,9.69-12.72,12.72-19.38Z"/>
    <g id="logo_final-2" data-name="logo final">
      <g>
        <path class="cls-5" d="m294.03,72.5c-9.58,6.63-19.9,11.79-30.22,16.95-26.53,11.79-58.23,19.16-93.6,23.59-16.95,2.21-47.91,3.69-61.91,4.42-4.42,0-8.11,3.69-8.11,7.37v220.38c-5.9,0-11.79-.74-17.69-1.47l-18.43-1.47c-4.42-.74-8.11-3.69-8.11-8.11V90.93c0-4.42,4.42-8.11,8.84-7.37,14.74,2.21,46.43,5.9,84.02,7.37,40.54,2.21,98.76-5.9,145.2-18.43Z"/>
        <path class="cls-1" d="m352.26,49.65c-23.59,22.85-50.86,42.75-80.34,58.96-1.47.74-2.95,1.47-4.42,2.21-11.06,5.9-22.85,11.06-34.64,16.21-9.58,3.69-19.9,7.37-30.22,11.06-14.74,4.42-20.64,5.9-35.38,7.37h-2.21c-4.42.74-8.11,3.69-8.11,8.11v228.48c-12.53,2.21-25.06,2.95-38.33,3.69h-.74c-4.42,0-8.11-3.69-8.11-7.37v-243.96c0-3.69,3.69-7.37,8.11-7.37,14-.74,44.96-1.47,61.91-4.42,35.38-5.16,67.07-12.53,93.6-23.59,21.37-9.58,39.8-22.85,58.96-36.12l17.69-12.53c.74,0,1.47,0,2.21-.74Z"/>
        <g>
          <path class="cls-4" d="m394.27,34.91v153.3c-5.9,14-10.32,21.37-19.16,33.17-8.84,11.79-20.64,24.32-27.27,30.22l-8.84,7.37v2.21c1.47,23.59,1.47,38.33.74,58.96l-1.47,18.43c-26.53,19.9-56.02,35.38-82.55,47.91-33.17,15.48-61.91,25.06-76.65,29.48h0c-4.42.74-6.63-.74-7.37-1.47-1.47-.74-1.47-2.21-1.47-3.69v-243.96c0-3.69,2.95-7.37,6.63-8.84l30.96-10.32c22.85-7.37,45.7-16.95,67.07-28.01,1.47-.74,2.95-1.47,4.42-2.21,31.69-16.95,60.44-38.33,85.5-63.39l22.11-21.37c2.95-2.95,7.37-1.47,7.37,2.21Z"/>
          <path class="cls-4" d="m394.27,208.12v1.47l-45.7,117.93-.74.74.74-8.11c.74-20.64,1.47-35.38-.74-58.23l5.9-4.42c7.37-6.63,19.9-19.16,28.74-31.69,5.16-6.63,8.84-11.79,11.79-17.69Z"/>
        </g>
      </g>
    </g>
  </g>
</svg>