<svg xmlns="http://www.w3.org/2000/svg" viewBox="0 0 200 50"><defs><style>.cls-1,.cls-2{fill:#211915;}.cls-2{stroke:#211915;stroke-miterlimit:10;stroke-width:0.25px;}</style></defs><g id="Logo_horizontal" data-name="Logo horizontal"><g id="negro"><g id="logo_final" data-name="logo final"><path class="cls-1" d="M28.86,7.21a25.42,25.42,0,0,1-3.35,1.85,39.2,39.2,0,0,1-10.4,2.64c-1.9.27-5.27.4-6.86.46a.85.85,0,0,0-.86.83V37.42c-.66,0-1.31-.09-2-.15l-2-.19a.92.92,0,0,1-.86-.89V9.24a.85.85,0,0,1,1-.8c1.65.23,5.13.67,9.27.84A60.37,60.37,0,0,0,28.86,7.21Z"/><path class="cls-1" d="M35.33,4.66a41.16,41.16,0,0,1-8.92,6.48l-.51.28c-1.25.64-2.53,1.24-3.83,1.78-1,.42-2.19.84-3.37,1.19a21.42,21.42,0,0,1-3.89.85l-.23,0a1,1,0,0,0-.89.93V41.48c-1.4.21-2.82.35-4.25.42h0a.86.86,0,0,1-.9-.83V14a.87.87,0,0,1,.86-.84c1.59,0,5-.18,6.87-.44A39.59,39.59,0,0,0,26.62,10.1a40.65,40.65,0,0,0,6.52-4l2-1.34A.65.65,0,0,1,35.33,4.66Z"/><path class="cls-1" d="M40,3V20a15.57,15.57,0,0,1-2.12,3.64,24,24,0,0,1-3,3.35l-1,.78,0,.23a46.4,46.4,0,0,1,.06,6.54l-.13,2.14A52.88,52.88,0,0,1,24.7,42a68.75,68.75,0,0,1-8.46,3.26h0a.86.86,0,0,1-.84-.2.7.7,0,0,1-.19-.41V17.58a1.08,1.08,0,0,1,.76-1l3.47-1.12a48.35,48.35,0,0,0,7.42-3.09l.51-.27a41.91,41.91,0,0,0,9.47-7l2.41-2.37A.44.44,0,0,1,40,3Z"/><path class="cls-1" d="M40,22.19v.14L34.92,35.38l-.05.12.06-.92a47.84,47.84,0,0,0,0-6.43l.62-.49a23.47,23.47,0,0,0,3.18-3.52A19,19,0,0,0,40,22.19Z"/></g><path class="cls-2" d="M62.7,13a7.7,7.7,0,0,1,5.35,1.76A5.8,5.8,0,0,1,70,19.2a5.8,5.8,0,0,1-2,4.5,7.64,7.64,0,0,1-5.33,1.77H60v7.17H55.84V13Zm-.11,8.83A3.88,3.88,0,0,0,65,21.12a2.26,2.26,0,0,0,.87-1.92A2.27,2.27,0,0,0,65,17.27a3.88,3.88,0,0,0-2.39-.66H60v5.17Z"/><path class="cls-2" d="M76.79,13V32.64H72.72V13Z"/><path class="cls-2" d="M86.07,17.85a5,5,0,0,1,2.66.66c.72.44,1.09.85,1.11,1.22V18h4V32.64h-4V30.7c0,.37-.39.83-1.12,1.35a4.45,4.45,0,0,1-2.65.79,6.44,6.44,0,0,1-2.36-.47A7.38,7.38,0,0,1,81.52,31a6.48,6.48,0,0,1-1.65-2.37,8.55,8.55,0,0,1-.63-3.35,7.15,7.15,0,0,1,2.12-5.46A6.74,6.74,0,0,1,86.07,17.85Zm3,4.4a3.06,3.06,0,0,0-2.33-1,3.28,3.28,0,0,0-2.45,1.09,4.12,4.12,0,0,0-1,2.93,4.16,4.16,0,0,0,1,3,3.29,3.29,0,0,0,2.45,1.1,3,3,0,0,0,2.33-1A4.4,4.4,0,0,0,90,25.3,4.27,4.27,0,0,0,89.08,22.25Z"/><path class="cls-2" d="M105.87,17.87a5.36,5.36,0,0,1,3.89,1.58,6.46,6.46,0,0,1,1.6,4.78v8.41h-4V24.48c0-2.12-.79-3.17-2.37-3.17a3.25,3.25,0,0,0-2,.71,5.23,5.23,0,0,0-1.32,1.39,4.28,4.28,0,0,0-.48,1.07v8.16h-4V18h4v2.76a3.3,3.3,0,0,1,1.44-1.87A5.25,5.25,0,0,1,105.87,17.87Z"/><path class="cls-2" d="M121.43,17.85a7.09,7.09,0,0,1,2.46.47,9,9,0,0,1,2.36,1.37,6.39,6.39,0,0,1,1.8,2.38,7.78,7.78,0,0,1,.69,3.31,9.18,9.18,0,0,1-.11,1.47H118.17a3.34,3.34,0,0,0,1.3,1.84,3.52,3.52,0,0,0,2.07.69,3.35,3.35,0,0,0,2.56-.9l3.32,1.68a7.5,7.5,0,0,1-5.91,2.68,7.12,7.12,0,0,1-2.45-.47A9.23,9.23,0,0,1,116.65,31a6.55,6.55,0,0,1-1.89-2.35,7.35,7.35,0,0,1-.73-3.31,7.79,7.79,0,0,1,.7-3.31,6.53,6.53,0,0,1,1.82-2.38,8.85,8.85,0,0,1,2.37-1.37A7.27,7.27,0,0,1,121.43,17.85Zm0,3.48a3.28,3.28,0,0,0-3.21,2.48h6.44A3.07,3.07,0,0,0,123.42,22,3.4,3.4,0,0,0,121.43,21.33Z"/><path class="cls-2" d="M138,17.85a5,5,0,0,1,2.66.66c.72.44,1.09.85,1.11,1.22V18h4V32.64h-4V30.7c0,.37-.39.83-1.12,1.35a4.49,4.49,0,0,1-2.65.79,6.4,6.4,0,0,1-2.36-.47A7.38,7.38,0,0,1,133.44,31a6.36,6.36,0,0,1-1.65-2.37,8.55,8.55,0,0,1-.63-3.35,7.11,7.11,0,0,1,2.12-5.46A6.74,6.74,0,0,1,138,17.85Zm3,4.4a3.09,3.09,0,0,0-2.33-1,3.26,3.26,0,0,0-2.45,1.09,4.12,4.12,0,0,0-1,2.93,4.16,4.16,0,0,0,1,3,3.27,3.27,0,0,0,2.45,1.1,3.08,3.08,0,0,0,2.33-1,4.4,4.4,0,0,0,.93-3.08A4.27,4.27,0,0,0,141,22.25Z"/><path class="cls-2" d="M153.35,29.18h9.22v3.46H149.21V13h4.14Z"/><path class="cls-2" d="M170.84,17.85a5,5,0,0,1,2.66.66c.72.44,1.09.85,1.11,1.22V18h4V32.64h-4V30.7c0,.37-.39.83-1.13,1.35a4.44,4.44,0,0,1-2.64.79,6.4,6.4,0,0,1-2.36-.47A7.38,7.38,0,0,1,166.29,31a6.36,6.36,0,0,1-1.65-2.37A8.55,8.55,0,0,1,164,25.3a7.11,7.11,0,0,1,2.12-5.46A6.74,6.74,0,0,1,170.84,17.85Zm3,4.4a3.09,3.09,0,0,0-2.33-1,3.26,3.26,0,0,0-2.45,1.09,4.12,4.12,0,0,0-1,2.93,4.16,4.16,0,0,0,1,3,3.27,3.27,0,0,0,2.45,1.1,3.08,3.08,0,0,0,2.33-1,4.4,4.4,0,0,0,.93-3.08A4.27,4.27,0,0,0,173.85,22.25Z"/><path class="cls-2" d="M189.49,17.85a6.76,6.76,0,0,1,4.72,2,7.09,7.09,0,0,1,2.14,5.46,8.55,8.55,0,0,1-.63,3.35A6.38,6.38,0,0,1,194.06,31a7.73,7.73,0,0,1-2.21,1.35,6.4,6.4,0,0,1-2.36.47,4.44,4.44,0,0,1-2.64-.79c-.74-.52-1.1-1-1.1-1.35v1.94h-4V13h4V18h0v1.72c0-.37.36-.78,1.08-1.22A5,5,0,0,1,189.49,17.85Zm-3,10.53a3.12,3.12,0,0,0,2.35,1,3.29,3.29,0,0,0,2.45-1.1,4.16,4.16,0,0,0,1-3,4.12,4.12,0,0,0-1-2.93,3.28,3.28,0,0,0-2.45-1.09,3.13,3.13,0,0,0-2.35,1,4.22,4.22,0,0,0-.94,3.05A4.35,4.35,0,0,0,186.49,28.38Z"/></g></g></svg>