<?xml version="1.0" encoding="UTF-8"?>
<svg id="Layer_1" data-name="Layer 1" xmlns="http://www.w3.org/2000/svg" viewBox="0 0 710.42 789.21">
  <defs>
    <style>
      .cls-1 {
        fill: #e5328e;
      }

      .cls-2 {
        fill: #4a00e0;
      }

      .cls-3 {
        fill: #fbfcf3;
      }

      .cls-4 {
        fill: #fcfeff;
      }

      .cls-5 {
        fill: #0fa6ba;
      }

      .cls-6 {
        fill: #22bcc7;
      }

      .cls-7 {
        fill: #6ed3d9;
      }
    </style>
  </defs>
  <path class="cls-4" d="m655.09,737.33c-9.3-1.57-26.82.35-37.04,4.01-.97.19-1.85.37-2.81.2-13.9,3.93-25.5,11.5-35.83,21.08-5.45,6.56-11.17,12.96-13.95,21.16-1.01,2.97-2.46,1.59-3.92.4-7.76-6.34-15.78-12.29-25.59-15.47-1.7-.55-3.46-1.01-5.23-1.24-6.67-.88-8.99-2.78-9.54-9.28-.28-3.34-.94-6.62-1.13-9.95-1.56-3.97-1.68-8.22-2.22-12.33-1.47-11.04-2.97-22.08-3.59-33.23-.71-12.73-2.37-25.41-2.39-38.18,0-1.87-.1-3.74-.16-5.61-.58-.49-.6-1-.04-1.52-.01-.57-.02-1.13-.03-1.7-.07-.16-.15-.32-.19-.49-.01-.06.1-.15.16-.22,0-1.91-.02-3.83-.02-5.74-.49-.48-.5-.97-.02-1.46.03-1.92.06-3.84.09-5.75-.06-.17-.14-.33-.17-.5,0-.06.12-.14.18-.21.13-2.44.26-4.88.39-7.31-.16-.25-.16-.49.01-.74.01-1.37.03-2.74.04-4.12-.31-1.45-.63-2.96-2.74-2.53-2.97.6-5.93-.17-8.9,0-1.39,11.2-1.69,22.55-4.81,34.37-1.67-3.06-1.75-5.75-2.07-8.3-1.09-8.63-2-17.28-2.98-25.92-.98-.05-1.95-.11-2.93-.16-2.2.09-4.4.18-6.6.27-.38,10.01.46,19.98.85,29.97,1.01,26.23-.47,52.38-3.51,78.45-.61,5.21-1.11,10.43-1.85,15.63-.65,4.55-1.57,9.07-2.39,13.66-1.87-.26-2.35-1.85-3.15-2.98-12.13-16.97-36.19-15.41-47.61.24-2.24,3.07-4.03,3.38-7.49,1.97-7.9-3.21-16.43-3.36-24.86-3.6-2.66-.08-3.93-.72-4.35-3.51-3.36-21.92-15.8-36.86-37.42-44.56-1.82-.65-3.77-.99-5.06-2.58-.61-.53-.72-1.23-.67-1.97-.09-.68-.19-1.36-.28-2.04-.08-.16-.19-.32-.24-.5-.02-.06.1-.16.15-.25-.37-1.67-.74-3.35-1.11-5.02-.08-.26-.16-.51-.25-.77-.06-.5-.13-1.01-.19-1.51l-.59-2.03c.69-1.63-1.08-2.83-.8-4.39-.32-1.13-.74-2.25-.95-3.4-2.77-14.72-5.48-29.44-8.26-44.15-1.82-9.61-3.36-19.25-4.33-28.98-.7-7.07-2.21-14.05-3.09-21.11-1.04-8.39-1.9-16.8-2.65-25.21-.48-5.41-.2-10.92-1.03-16.27-1.52-9.73-1.59-19.53-2.23-29.3-.54-8.39-.15-16.84-.17-25.27-.4-.55-.4-1.1-.05-1.67-.01-.5-.03-1-.04-1.5-.48-.58-.51-1.17-.07-1.78,0-.46-.02-.92-.03-1.39-.5-.61-.5-1.23-.04-1.86,0-.45,0-.89,0-1.34-.48-.63-.48-1.25,0-1.88,0-.45.01-.9.02-1.35-.69-1.69-.61-3.37.05-5.04,0-.47,0-.95,0-1.42-.46-.6-.46-1.2,0-1.79,0-.47,0-.95,0-1.42-.48-.6-.49-1.2-.02-1.8,0-.46,0-.93,0-1.39-.49-.61-.49-1.22-.03-1.84.03-3.68.06-7.36.08-11.04-.43-.6-.44-1.19.02-1.77,0-.5.02-.99.03-1.49-.21-.83-.41-1.66-.62-2.49-5.48-1.3-11.01-.72-16.53-.35-.65,17.15-3.03,34.09-6.32,51.83-2.36-4.35-2.39-8.42-2.99-12.23-1.66-10.49-2.89-21.04-4.22-31.58-.33-2.58.83-5.3-.83-7.75-.58-.2-1.15-.4-1.73-.6-.48.05-.95.1-1.43.14-.41.43-.86.45-1.33.1-.69-.05-1.37-.09-2.06-.14-.6.42-1.22.47-1.85.09l-5.11.47c-.24,1.09-.48,2.17-.72,3.26.66,12.26,1.32,24.52,1.98,36.77.42.39.43.8.04,1.21.11,2.32.23,4.64.34,6.96.01.31.02.62.04.93.35,16.95.41,33.91-.76,50.82-.75,10.83-1.41,21.68-2.2,32.5-.63,8.64-1.6,17.22-2.57,25.81-1.08,9.51-2.21,19.01-3.59,28.48-.89,6.13-2.26,12.2-3.41,18.3-.81,5.74-2.34,11.39-2.37,17.23-.02,3.41-2.25,4.32-5.17,4.36-11.32.13-21.66,3.36-31.42,8.77-8.32,4.61-14.5,11.4-20.8,18.12-1.37,2.09-2.73,4.18-4.1,6.27-1.7,5.44-4.64,10.47-5.45,16.23-.28,2-2.05,2.54-4.21,1.76-3.91-1.41-8.02-1.98-12.18-2.18-.31-.02-.63-.04-.94-.06-12.03-.56-23.73.82-35.15,4.81-6.58,2.3-12.53,5.59-18.14,9.4-2.69,1.82-4,1.77-6.07-.65-10.98-12.83-24.72-22.22-41.43-26.14-14.42-3.38-63.78,36.45-71.26,78.09l705.12,9.3c-4.54-11.39-7.54-32.92-52.89-66.09Z"/>
  <path class="cls-2" d="m707.99,803.42c-35.95-59.92-58.32-62.75-62.37-63.43-9.3-1.57-18.46-.47-27.57,1.35-.97.19-10.76,3.51-11.72,3.33,2.17-3.28,10.91-9.78,12.76-10.87,4.72-2.77,12-4.76,17.29-4.76,9.08.6,14.99,1.02,28.06,8.12,20.24,10.99,32.51,31.26,39.93,53.06,2.08,6.12,3.61,11.16,3.61,13.21Z"/>
  <path class="cls-3" d="m222.16,289.19c.78-1.29.29-2.7.39-4.05.19-.31.38-.62.57-.92.17-.17.26-.37.29-.6,1.25-.08,2.49-.24,3.74-.24,18.89.02,37.77.06,56.66.11,26.8.07,53.6.14,80.4.22.03,10.31.64,20.65-.09,30.9-.71,9.98-1.67,19.99-2.91,29.95-.6,4.85-1.45,9.7-1.75,14.6-.3,1.39-.87,2.68-1.09,4.15-1.29,8.8-4.03,17.28-6.27,25.88-2.12,8.12-6.06,15.64-7.72,23.86-1.15,1.64-2.31,3.27-3.46,4.91-11.67,0-23.33.02-35,0-2.03,0-4.39.46-4.35-2.76.15-14.51-1.15-28.95-2.18-43.41-.58-8.24-1.39-16.36-3.34-24.4-.39-1.6-1.05-3.32-2.43-3.27-1.37.05-2.39,1.88-2.68,3.36-1.98,10.15-3.58,20.4-4.06,30.69-.56,11.85-1.71,23.71-.93,35.59.23,3.57-1.31,4.25-4.6,4.21-11.53-.14-23.06-.03-34.58,0-1.17-1.47-2.34-2.94-3.52-4.41-.7-4.18-2.5-8.03-4.04-11.95-5.35-13.53-8.34-27.65-11.19-41.8-1.3-6.97-2.04-14.03-3.13-21-1.5-9.55-1.24-19.14-2.05-28.69-.5-5.84-.08-11.85-.4-17.78,1.11-1.14.75-2.17-.26-3.15Z"/>
  <path class="cls-2" d="m364.2,283.71c-26.8-.07-53.6-.15-80.4-.22-18.89-.05-37.77-.09-56.66-.11-1.25,0-2.49.15-3.74.24-2.08-5.26-.1-10.59.2-15.78.4-6.85.37-13.79,1.98-20.62,2.46-10.49,3.76-21.21,6.38-31.68.93-3.74,1.63-7.54,2.33-11.33.53-2.88,3.78-4.33,4-7.33,1.48-.14,2.96-.28,4.44-.42.42,0,.83,0,1.25-.01,1.1.09,2.2.25,3.3.25,19.95.03,39.9.08,59.85.03,11.9-.03,23.81-.22,35.71-.34.69.04,1.39.07,2.08.11,1.44.06,2.88.12,4.32.18,2.9,4.57,4.27,9.6,5.36,14.82,2.01,9.65,4.55,19.2,6.51,28.86,1.13,5.59,1.93,11.3,2.2,16.99.42,8.78,1.56,17.54.89,26.36Zm-42.72-62.74c-1.26-1.36-2.5-2.75-3.79-4.08-10.2-10.51-27.02-12.91-40.56-5.81-12.47,6.53-19.68,22.33-16.11,35.6,4.12,15.32,16.94,23.99,31.15,24.69,17.11.85,30.22-10.42,34.08-24.15,1.26-4.48.54-9.05.62-13.58,4.17-4.9,1.54-11.09-5.38-12.68Z"/>
  <path class="cls-3" d="m530.62,598.55c-.85,1.61-1.35,3.46-3.06,4.53-7.5-.11-14.99-.38-22.49-.24-3.16.06-3.99-.95-4.09-3.87-.35-10.34-.65-20.7-1.65-30.99-.49-5.08-.2-10.5-3.15-15.21-1.92.58-2.17,2.09-2.56,3.49-2.03,7.19-2.13,14.62-2.48,21.95-.35,7.44-1.61,14.87-.9,22.36.16,1.67-.48,2.32-2.37,2.29-8.33-.14-16.66-.11-25-.15-.54-.83-1.09-1.66-1.63-2.5-4.47-12.31-8.15-24.83-10.77-37.63-1.59-13.62-3.44-27.2-2.98-40.98.12-3.7-1.66-7.45.3-11.13.7.02,1.41.04,2.11.06.37.04.75.08,1.12.12,1.09.03,2.18.06,3.27.09,7.8.6,15.6.34,23.4.17.82,0,1.64.01,2.45.02.29,0,.59,0,.88,0,.82,0,1.64.01,2.46.02.29,0,.58,0,.87,0,.82,0,1.64,0,2.47,0,1.4,0,2.8,0,4.2,0,.82,0,1.64,0,2.46,0,.29,0,.58,0,.88,0,11.5,0,23.01-.05,34.51.05,5.11.05,10.24-.45,15.34.28.51,12.61-.58,25.12-2.15,37.64-.55,4.41-1.61,8.9-.96,13.43-.29.41-.72.78-.84,1.23-1.57,5.91-2.01,12.04-4.12,17.86-2.04,5.64-3.71,11.4-5.54,17.1Z"/>
  <path class="cls-2" d="m228,359.81c2.85,14.15,5.84,28.27,11.19,41.8,1.55,3.92,3.34,7.76,4.04,11.95-7.02,1.35-11.55,6.36-16.01,10.95-13.85,14.25-23.01,31.24-29.99,49.46-3.5,9.14-6.34,18.44-8.94,27.84-.2.74-.58,1.43-1.05,2.55-3.18-4.8-5.1-9.76-6.53-14.65-2.36-8.06-5.42-15.97-6.57-24.35-1.38-10.07-2.55-20.14-2.43-30.32.12-10.15.07-20.38,1.87-30.34,1.79-9.95,4.99-19.66,7.65-29.46,2.64-9.73,7.24-18.68,11.92-27.6.83-1.59,1.76-4.16,3.92-1.29,7.36,9.8,17.74,13.14,29.68,13.41.42,0,.83.04,1.25.05Z"/>
  <path class="cls-2" d="m344.37,413.05c1.67-8.22,5.61-15.74,7.72-23.86,2.24-8.6,4.98-17.08,6.27-25.88.22-1.47.79-2.75,1.09-4.15,11.96.86,22.28-2.45,29.94-11.63,2.35-2.82,3.42-1.67,4.69.48,8.26,13.98,13.5,29.13,16.81,44.74,2.54,12,4.15,24.21,4.51,36.56.54,18.56-1.76,36.63-7.23,54.45-2.12,6.92-4.42,13.7-8.18,20.43-1.5-4.64-3.12-9.24-4.47-13.92-5.76-19.93-14.01-38.78-26.51-55.68-5.41-7.31-11.97-13.7-19.41-19.15-1.51-1.1-3.48-1.61-5.24-2.39Z"/>
  <path class="cls-3" d="m344.92,196.5c-.69-.04-1.39-.07-2.08-.11-1.57-.76-3.26-.53-4.91-.53-29.68,0-59.36.01-89.04.05-1.64,0-3.34-.21-4.91.54-.42,0-.83,0-1.25.01-1.58-.45-3.15-.91-4.73-1.36,6.37-19.95,14.27-39.32,23.77-58.07,1.8-3.56,3.22-7.37,6.01-10.41,17.2.02,34.39.04,51.59.06,8.57,12.44,14.36,26.17,19.92,40,3.75,9.32,7.54,18.65,10.01,28.4-1.18,1.26-2.98.74-4.36,1.41Z"/>
  <path class="cls-2" d="m192.78,712.2c-13.9-2.78-27.84-2.96-41.52.75-9.79,2.65-19.95,4.88-27.14,12.94-2.44,2.74-5.01,1.35-6.97-1.07-7.18-8.85-16.39-15.32-26.37-20.85-15.9-8.81-33.21.8-49.17,13.97-21.22,18.23-32.29,49.22-38.74,71.77.43,0,.85,0,1.28,0,12.89-37.48,48.85-73.93,76.94-67.34,16.71,3.92,23.49,6.96,34.47,19.79,2.07,2.42,3.38,2.48,6.07.65,5.62-3.81,11.56-7.1,18.14-9.4,11.42-3.99,23.11-5.37,35.15-4.81.34-.32.65-.27.94.06,4.16.2,8.27.77,12.18,2.18,2.15.78,3.93.24,4.21-1.76.81-5.76,3.75-10.79,5.45-16.23-1.64-.22-3.3-.34-4.92-.66Z"/>
  <path class="cls-2" d="m483.51,510.95c-.82,0-1.64-.02-2.46-.02-.29,0-.59,0-.88,0-.82,0-1.64-.01-2.45-.02-7.79-1.1-15.59-.88-23.4-.17-1.09-.03-2.18-.06-3.27-.09-.37-.04-.75-.08-1.12-.12-.7-.02-1.41-.04-2.11-.06-.76-9.64.84-19.04,2.3-28.56,1.13-7.36,4.07-14.33,4.37-21.82.13-3.19,4-5.22,3.31-8.79,1.66.08,3.32.23,4.98.24,23.61.02,47.21.03,70.82.04.82,4.75,3.9,8.63,5.41,13.19,2.16,6.56,2.77,13.26,3.25,19.93.64,8.86,3.01,17.62,1.99,26.59-5.1-.74-10.23-.23-15.34-.28-11.5-.11-23.01-.05-34.51-.05-.29,0-.58,0-.88,0-.82,0-1.64,0-2.46,0-1.4-.82-2.8-.85-4.2,0-.82,0-1.64,0-2.47,0-.29,0-.58,0-.87,0Zm12.43-51.45c-13.87.05-23,8.82-23.32,21.68-.28,11.11,12.81,21.5,23.29,21.24,13.51-.34,22.31-10.53,22.55-21.3.23-10.55-9.03-23.38-22.52-21.62Z"/>
  <path class="cls-2" d="m246.75,417.97c11.53-.02,23.06-.13,34.58,0,3.3.04,4.84-.64,4.6-4.21-.77-11.88.37-23.75.93-35.59.49-10.29,2.09-20.54,4.06-30.69.29-1.48,1.3-3.31,2.68-3.36,1.37-.05,2.04,1.67,2.43,3.27,1.95,8.04,2.76,16.16,3.34,24.4,1.02,14.46,2.33,28.9,2.18,43.41-.03,3.21,2.32,2.75,4.35,2.76,11.67.01,23.33,0,35,0-1.04,6.59-5,11.89-8.36,17.45-1.88.43-3.76.43-5.71.37-7.3-.24-14.61-.21-21.91-.25-2.12-.01-4.15.59-3.93,3.02.42,4.79-1.2,9.44-.69,14.21-.65,17.15-3.03,34.09-6.32,51.83-2.36-4.35-2.39-8.42-2.99-12.23-1.66-10.49-2.89-21.04-4.22-31.58-.33-2.58.83-5.3-.83-7.75-.07-.49-.13-.98-.2-1.47-.15-5.11,1.12-10.29-.77-15.32-.29-.03-.59-.06-.88-.09-.55-.06-1.09-.17-1.64-.19-9.39-.24-18.79-.47-28.18-.7-2.76-5.66-6.43-10.94-7.51-17.28Z"/>
  <path class="cls-2" d="m341.04,695.44c.69-1.63-1.08-2.83-.8-4.39,9.26-1.17,18.14.16,26.64,3.86,9.09,3.96,17.07,9.28,23,17.19,5.25,7,9.72,14.28,10.28,23.21.35,5.57,2.07,7.18,7.65,7.21,8.29.04,16.09,2.47,23.85,4.84,3.44,1.06,5.38.8,7.51-2.4,5.3-7.96,13.29-11.65,23.05-12.14,5.62-.28,10.99.41,16.2,2.44-.61,5.21-1.11,10.43-1.85,15.63-.65,4.55-1.57,9.07-2.39,13.66-1.87-.26-2.35-1.85-3.15-2.98-12.13-16.97-36.19-15.41-47.61.24-2.24,3.07-4.03,3.38-7.49,1.97-7.9-3.21-16.43-3.36-24.86-3.6-2.66-.08-3.93-.72-4.35-3.51-3.36-21.92-15.8-36.86-37.42-44.56-1.82-.65-3.77-.99-5.06-2.57.03-.74-.05-1.44-.67-1.97-.09-.68-.19-1.36-.28-2.04.1-.26.07-.51-.09-.74-.37-1.67-.74-3.35-1.11-5.02-.08-.26-.16-.51-.25-.77-.06-.5-.13-1.01-.19-1.51.1-.75.02-1.46-.59-2.03Z"/>
  <path class="cls-2" d="m450.49,562.58c2.63,12.8,6.31,25.32,10.77,37.63-8.52,2.18-12.78,9.05-17.61,15.13-8.82,11.11-13.38,24.16-17.74,37.29-1.03,3.11-1.6,6.31-2.6,9.56-3.22-5.84-5.69-11.87-7.19-18.16-7.29-30.56-3.96-60.01,10.42-88.24,1.42-2.78,2.34-3.17,4.49-.62,5,5.94,11.54,8.43,19.45,7.4Z"/>
  <path class="cls-2" d="m530.62,598.55c1.83-5.71,3.5-11.47,5.54-17.1,2.1-5.82,2.55-11.95,4.12-17.86.12-.45.55-.82.84-1.23,7.46,1.17,13.64-1.07,18.77-6.38,3.26-3.37,3.68-3.29,5.55.73,9.64,20.75,15.02,42.42,13.72,65.22-.8,14.01-4.4,27.55-10.72,40.97-1.75-2.78-1.53-5.47-2.26-7.87-5.07-16.46-10.91-32.53-23.05-45.67-3.15-3.41-6.35-6.75-10.7-8.77-.94-.44-1.63-.99-1.79-2.03Z"/>
  <path class="cls-3" d="m533.59,451.57c-23.61,0-47.21-.01-70.82-.04-1.66,0-3.32-.15-4.98-.24,3.3-13.21,8.91-25.59,14.78-37.85,1.64-3.43,2.46-7.44,6.18-9.67,11.58.04,23.16.08,34.74.12,3.44,3.93,5.09,8.79,7.32,13.33,4.96,10.11,8.46,20.78,12.82,31.12-.12.26-.07.49.13.7-.06.84-.13,1.68-.19,2.52Z"/>
  <path class="cls-2" d="m462.89,602.71c8.33.03,16.67,0,25,.15,1.89.03,2.53-.62,2.37-2.29-.71-7.49.54-14.91.9-22.36.35-7.33.45-14.76,2.48-21.95.39-1.4.64-2.9,2.56-3.49,2.95,4.71,2.65,10.13,3.15,15.21,1,10.29,1.3,20.65,1.65,30.99.1,2.93.93,3.93,4.09,3.87,7.49-.13,14.99.14,22.49.24.19,4.84-2.94,8.19-5.67,11.72-1.79,0-3.59-.06-5.38.04-5.18.29-10.43-.76-15.54.77-.2.21-.4.42-.6.63.03,3.45.06,6.89.09,10.33-1.39,11.2-1.69,22.55-4.81,34.37-1.67-3.06-1.75-5.75-2.07-8.3-1.09-8.63-2-17.28-2.98-25.91.31-1.34.52-2.68-.29-3.95,0-.82,0-1.64.01-2.46l.19-.26-.14-.28c.36-1.21.64-2.42-.07-3.62-.27-.24-.54-.48-.81-.72-6.68-1.37-13.44-.23-20.15-.65-2.53-3.84-4.71-7.86-6.45-12.09Z"/>
  <path class="cls-2" d="m319.36,126.68c-17.2-.02-34.4-.04-51.59-.06-.38-1.42.27-2.6.93-3.79,6.49-11.75,13.72-23.07,21.31-34.18.53-.78,1.08-1.56,1.71-2.26,1.68-1.89,3.06-1.75,4.55.4,6.67,9.64,12.79,19.61,18.55,29.77,1.82,3.22,4.79,6.02,4.54,10.12Z"/>
  <path class="cls-2" d="m579.42,762.61c-5.45,6.56-11.17,12.96-13.95,21.16-1.01,2.97-2.46,1.59-3.92.4-7.76-6.34-15.78-12.29-25.59-15.47-1.7-.55-3.46-1.01-5.23-1.24-6.67-.88-8.99-2.78-9.54-9.28-.28-3.34-.94-6.62-1.13-9.95,10.87-1.11,21.7.43,32.05,2.82,5.76,1.33,15.19,5.39,18.45,6.76,2.64,2.29,5.5,3.28,8.85,4.81Z"/>
  <path class="cls-2" d="m261.56,658.12c-.81,5.74-2.34,11.39-2.37,17.23-.02,3.41-2.25,4.32-5.17,4.36-11.32.13-21.66,3.36-31.42,8.77-8.32,4.61-18.6,17.67-24.9,24.39-1.7-4.83,3.8-15.12,6.58-19.4,4.29-6.59,9.46-12.2,15.02-17.85,8.59-8.73,19.25-12.34,30.52-15.35,3.82-1.02,8-.5,11.73-2.14Z"/>
  <path class="cls-2" d="m513.5,403.9c-11.58-.04-23.16-.08-34.74-.12-.45-1.62-.36-3.14.6-4.62,4.82-7.34,9.62-14.69,14.41-22.05,1-1.53,2.16-2.95,3.64-.63,5.32,8.3,11.41,16.16,15.64,25.09.33.7.3,1.55.44,2.34Z"/>
  <path class="cls-1" d="m300.3,452.75c-.51-4.76,1.11-9.42.69-14.21-.22-2.44,1.82-3.03,3.93-3.02,7.31.04,14.61.01,21.91.25,1.95.06,3.83.07,5.71-.37.94.97,2.01,1.89,1.47,3.46-1.09,3.12-.49,6.34-.58,9.51-.13,4.47-1.17,5.39-5.8,4.57-3.39-.61-6.75-1.27-10.1.13-.24-.02-.48-.01-.72.03-5.48-1.3-11.01-.72-16.53-.35Z"/>
  <path class="cls-1" d="m254.26,435.24c9.39.23,18.79.46,28.18.7.55.01,1.1.12,1.64.19.29.03.59.06.88.09,1.9,5.03.63,10.21.77,15.32-.51.29-1.02.58-1.53.88-.48.05-.95.1-1.43.14-.44.03-.89.06-1.33.1-.69-.05-1.37-.09-2.06-.14-.62.03-1.24.06-1.85.09-1.7.16-3.4.32-5.1.47-1.11.54-.75,1.64-1.01,2.5-.44-2.51-1.82-3.55-4.58-3.31-2.89.25-5.82-.02-8.73.07-2.87.1-3.99-1.16-3.93-3.86.11-4.41.06-8.82.08-13.24Z"/>
  <path class="cls-1" d="m500.97,615.61c5.11-1.54,10.36-.48,15.54-.77,1.79-.1,3.58-.03,5.38-.04,1.24,2.74.53,5.76,1.35,8.59.48,1.66-.8,2.4-2.36,2.51-1.37.09-2.77.22-4.11.03-2.71-.4-4.09.79-4.66,3.19-.31-1.45-.63-2.96-2.74-2.53-2.97.6-5.93-.17-8.9,0-.03-3.45-.06-6.89-.09-10.34.2-.21.4-.42.6-.63Z"/>
  <path class="cls-1" d="m490.3,616.17c.72,1.19.43,2.4.07,3.61-.09.17-.11.35-.05.54,0,.82,0,1.64-.01,2.46-1.23,1.03-2.17,2.25-2.63,3.79-2.2.09-4.4.18-6.6.27-2.65-1.73-5.63-.69-8.45-.84-2.17-.11-3.52-.68-3.27-2.98.3-2.75-1.36-5.49-.01-8.23,6.71.42,13.47-.71,20.15.65.27.24.54.48.82.72Z"/>
  <path class="cls-7" d="m222.16,289.19c1.01.98,1.37,2.01.26,3.15-1.29-.96-1.21-2.02-.26-3.15Z"/>
  <path class="cls-7" d="m237.99,195.1c1.58.45,3.15.91,4.73,1.36-1.48.14-2.96.28-4.44.42-.64-.51-1.18-1.04-.29-1.79Z"/>
  <path class="cls-7" d="m317.32,484.61c-.69-1.69-.61-3.37.05-5.04.46,1.69.45,3.37-.05,5.04Z"/>
  <path class="cls-7" d="m337.91,196.29c-.26-.94,10.2.05,11.38-1.21-.01.53-.03,1.06-.04,1.59-1.44-.06-9.9-.33-11.34-.39Z"/>
  <path class="cls-7" d="m271.42,455.58c.26-.86-.1-1.96,1.01-2.5-.24,1.09-.48,2.17-.72,3.26-.1-.25-.19-.51-.29-.76Z"/>
  <path class="cls-7" d="m316.83,453.1c.24-.04.48-.05.72-.03-.03.84-.07,1.68-.1,2.52-.21-.83-.41-1.66-.62-2.49Z"/>
  <path class="cls-7" d="m317.4,458.85c-.43-.6-.44-1.19.02-1.77,0,.59-.01,1.18-.02,1.77Z"/>
  <path class="cls-7" d="m317.3,487.83c-.48-.63-.48-1.25,0-1.88,0,.63,0,1.25,0,1.88Z"/>
  <path class="cls-7" d="m317.35,471.73c-.49-.61-.49-1.22-.03-1.84,0,.61.02,1.23.03,1.84Z"/>
  <path class="cls-7" d="m317.37,474.93c-.48-.6-.49-1.2-.02-1.8,0,.6.01,1.2.02,1.8Z"/>
  <path class="cls-3" d="m511.7,658.88c-.58-.49-.6-1-.04-1.52.01.51.02,1.01.04,1.52Z"/>
  <path class="cls-3" d="m511.58,649.2c-.49-.48-.5-.97-.02-1.46,0,.49.02.97.02,1.46Z"/>
  <path class="cls-7" d="m317.35,491.03c-.5-.61-.5-1.23-.04-1.86.01.62.03,1.24.04,1.86Z"/>
  <path class="cls-7" d="m317.37,478.14c-.46-.6-.46-1.2,0-1.79,0,.6,0,1.19,0,1.79Z"/>
  <path class="cls-7" d="m317.44,494.19c-.48-.58-.51-1.17-.07-1.78.02.59.04,1.18.07,1.78Z"/>
  <path class="cls-7" d="m317.52,497.36c-.4-.55-.4-1.1-.05-1.67.02.56.03,1.11.05,1.67Z"/>
  <path class="cls-7" d="m223.12,284.22c-.19.31-.38.62-.57.92-.12-.48.11-.77.57-.92Z"/>
  <path class="cls-3" d="m511.63,655.66c-.07-.16-.15-.32-.19-.49-.01-.06.1-.15.16-.22.16.23.17.47.03.71Z"/>
  <path class="cls-3" d="m511.65,641.99c-.06-.17-.14-.33-.17-.5,0-.06.12-.14.18-.21.14.24.14.48-.01.71Z"/>
  <path class="cls-6" d="m512.06,633.96c-.16-.25-.16-.49.01-.74.07.17.16.34.2.52.01.06-.13.14-.21.22Z"/>
  <path class="cls-7" d="m274.06,501.29c.01.31.02.62.04.93-.08-.21-.19-.42-.23-.64-.02-.08.13-.19.2-.29Z"/>
  <path class="cls-7" d="m273.69,493.12c.42.39.43.8.04,1.21-.01-.4-.02-.81-.04-1.21Z"/>
  <path class="cls-6" d="m533.78,449.05c-.21-.2-.25-.44-.13-.7.1.15.23.3.3.46.02.05-.11.16-.17.24Z"/>
  <path class="cls-5" d="m487.68,626.57c.46-1.53,1.4-2.75,2.63-3.79.82,1.27.6,2.61.29,3.95-.98-.06-1.95-.11-2.93-.16Z"/>
  <path class="cls-7" d="m284.21,452.42c.51-.29,1.02-.58,1.53-.88.07.49.13.98.2,1.47-.58-.2-1.15-.4-1.73-.6Z"/>
  <path class="cls-3" d="m343.55,707.56c.62.53.7,1.23.67,1.97-.61-.53-.72-1.23-.67-1.97Z"/>
  <path class="cls-7" d="m277.54,452.61c.62-.03,1.24-.06,1.85-.09-.6.42-1.22.47-1.85.09Z"/>
  <path class="cls-3" d="m341.04,695.44c.61.56.68,1.27.59,2.03-.2-.68-.39-1.35-.59-2.03Z"/>
  <path class="cls-7" d="m174.92,728.61c.34-.32.65-.27.94.06-.31-.02-.63-.04-.94-.06Z"/>
  <path class="cls-3" d="m343.17,704.77c.16.23.19.48.09.74-.08-.16-.19-.32-.24-.5-.02-.06.1-.16.15-.25Z"/>
  <path class="cls-3" d="m341.81,698.98c.08.26.17.52.25.77-.08-.26-.17-.52-.25-.77Z"/>
  <path class="cls-7" d="m281.45,452.66c.44-.03.89-.06,1.33-.1-.41.43-.86.45-1.33.1Z"/>
  <path class="cls-1" d="m326.86,233.64c-.08,4.53.64,9.1-.62,13.58-3.86,13.72-16.97,24.99-34.08,24.15-14.21-.7-27.03-9.37-31.15-24.69-3.57-13.28,3.65-29.07,16.11-35.6,13.54-7.1,30.36-4.69,40.56,5.81,1.29,1.33,2.53,2.72,3.79,4.08,2.64,3.89,3.85,8.35,5.38,12.68Zm-29.21-18.02c-3.64-.93-6.98.1-10.51.99-9.7,2.45-16.98,10.44-18.02,20.03-1.47,13.56,9.69,27.82,27.44,25.92,14.33-1.53,21.84-12.33,21.6-24.08-.24-11.7-9.38-19.99-19-22.47-.5-.13-1.01-.26-1.51-.4Z"/>
  <path class="cls-7" d="m238.21,196.39c1.57-.75,9.03-.48,10.68-.48,29.68-.04,59.36-.06,89.04-.05,1.64,0,3.34-.23,4.91.53-11.9.12-23.81.31-35.71.34-19.95.05-39.9,0-59.85-.03-1.1,0-7.97-.23-9.07-.31Z"/>
  <path class="cls-2" d="m326.86,233.64c-1.53-4.33-2.74-8.79-5.38-12.68,6.92,1.59,9.55,7.78,5.38,12.68Z"/>
  <path class="cls-7" d="m454.31,510.74c7.81-.7,15.61-.93,23.4.17-7.8.17-15.61.43-23.4-.17Z"/>
  <path class="cls-7" d="m486.85,510.95c1.4-.86,2.8-.83,4.2,0-1.4,0-2.8,0-4.2,0Z"/>
  <path class="cls-7" d="m493.51,510.95c.29,0,.58,0,.88,0-.29,0-.58,0-.88,0Z"/>
  <path class="cls-7" d="m483.51,510.95c.29,0,.58,0,.87,0-.29,0-.58,0-.87,0Z"/>
  <path class="cls-7" d="m480.16,510.93c.29,0,.59,0,.88,0-.29,0-.59,0-.88,0Z"/>
  <path class="cls-7" d="m449.92,510.53c.37.04.75.08,1.12.12-.37-.04-.75-.08-1.12-.12Z"/>
  <path class="cls-1" d="m495.94,459.5c13.49-1.75,22.75,11.07,22.52,21.62-.24,10.76-9.03,20.96-22.55,21.3-10.48.26-23.57-10.13-23.29-21.24.32-12.86,9.45-21.63,23.32-21.68Zm16.74,21.1c-.03-9.59-7.44-16.49-17.65-16.44-8.5.04-16.54,8.07-16.51,16.47.04,8.4,8.4,16.68,16.86,16.7,10.02.02,17.32-7.04,17.29-16.73Z"/>
  <path class="cls-5" d="m284.97,436.23c-.29-.03-.59-.06-.88-.09.29.03.59.06.88.09Z"/>
  <path class="cls-5" d="m490.32,620.32c-.06-.19-.04-.37.05-.54,0,0,.14.28.14.28l-.19.26Z"/>
  <path class="cls-5" d="m500.97,615.61c-.2.21-.4.42-.6.63.2-.21.4-.42.6-.63Z"/>
  <path class="cls-5" d="m490.3,616.17c-.27-.24-.54-.48-.82-.72.27.24.54.48.82.72Z"/>
  <path class="cls-2" d="m299.16,216.02c9.62,2.48,18.76,10.77,19,22.47.24,11.75-7.27,22.55-21.6,24.08-17.75,1.89-28.91-12.37-27.44-25.92,1.04-9.59,8.32-17.58,18.02-20.03,3.54-.89,6.87-1.92,10.51-1,.5.13,1.01.26,1.51.4Z"/>
  <path class="cls-5" d="m299.16,216.02c-.5-.13-1.01-.26-1.51-.4.5.13,1.01.26,1.51.4Z"/>
  <path class="cls-2" d="m512.67,480.6c.03,9.69-7.27,16.75-17.29,16.73-8.46-.02-16.83-8.3-16.86-16.7-.04-8.4,8.01-16.43,16.51-16.47,10.21-.05,17.62,6.85,17.65,16.44Z"/>
</svg>