<?xml version="1.0" encoding="UTF-8"?>
<svg id="Layer_2" data-name="Layer 2" xmlns="http://www.w3.org/2000/svg" viewBox="0 0 844.46 882.98">
  <defs>
    <style>
      .cls-1, .cls-2 {
        fill: #fbfcf3;
      }

      .cls-1, .cls-3 {
        opacity: .76;
      }

      .cls-4 {
        fill: #e5328e;
      }

      .cls-5 {
        fill: #4a00e0;
      }

      .cls-3, .cls-6 {
        fill: #fcfeff;
      }

      .cls-7 {
        fill: #0fa6ba;
      }

      .cls-8 {
        fill: #22bcc7;
      }

      .cls-9 {
        fill: #6ed3d9;
      }
    </style>
  </defs>
  <g id="Layer_1-2" data-name="Layer 1">
    <g>
      <path class="cls-6" d="m134.54,762.14c4.27,3.62,8.27,7.62,12,11.98,2.44,2.85,3.98,2.92,7.15.77,4.85-3.29,9.92-6.25,15.32-8.66l-34.47-4.09Z"/>
      <path class="cls-3" d="m782.15,768.42c-10.96-1.85-31.6.42-43.64,4.72-1.14.23-2.18.44-3.31.23-16.38,4.63-30.05,13.55-42.21,24.83-6.42,7.73-13.16,15.27-16.43,24.92-1.19,3.5-2.9,1.87-4.62.47-9.14-7.47-18.59-14.47-30.15-18.22-2-.65-4.07-1.19-6.16-1.46-7.86-1.04-10.59-3.27-11.24-10.94-.34-3.93-1.11-7.8-1.33-11.72-1.84-4.67-1.97-9.69-2.62-14.53-1.73-13.01-3.5-26.01-4.23-39.14-.83-15-2.8-29.93-2.82-44.98,0-2.2-.12-4.4-.19-6.6-.68-.58-.71-1.18-.04-1.79-.01-.67-.03-1.33-.04-2-.08-.19-.18-.38-.22-.58-.01-.07.12-.18.19-.26,0-2.26-.02-4.51-.03-6.77-.57-.57-.59-1.14-.03-1.72.04-2.26.07-4.52.11-6.78-.07-.19-.17-.39-.19-.59-.01-.07.14-.17.21-.25.15-2.87.31-5.74.46-8.62-.19-.29-.19-.58.01-.87.02-1.62.03-3.23.05-4.85-.37-1.71-.75-3.48-3.23-2.98-3.5.71-6.99-.2-10.48,0-1.64,13.19-1.99,26.56-5.67,40.49-1.97-3.61-2.06-6.78-2.44-9.78-1.29-10.16-2.36-20.35-3.51-30.53-1.15-.06-2.3-.13-3.45-.19-2.59.11-5.18.21-7.78.32-.45,11.79.54,23.54,1,35.31,1.19,30.91-.55,61.7-4.14,92.42-.71,6.14-1.3,12.29-2.18,18.41-.77,5.36-1.85,10.68-2.81,16.1-2.21-.31-2.76-2.18-3.72-3.51-14.29-19.99-42.63-18.16-56.09.28-2.64,3.61-4.75,3.98-8.83,2.32-9.3-3.79-19.36-3.96-29.29-4.24-3.13-.09-4.63-.84-5.13-4.13-3.96-25.82-18.61-43.42-44.09-52.5-2.14-.76-4.44-1.17-5.96-3.03-.72-.63-.85-1.45-.79-2.32-.11-.8-.22-1.61-.33-2.41-.1-.19-.23-.38-.29-.59-.02-.08.11-.19.18-.29-.44-1.97-.88-3.95-1.31-5.92-.1-.3-.19-.61-.29-.91-.07-.59-.15-1.19-.22-1.78-.23-.8-.46-1.59-.69-2.39.81-1.91-1.27-3.34-.94-5.17-.38-1.33-.87-2.65-1.12-4-3.26-17.34-6.46-34.68-9.74-52.02-2.14-11.32-3.96-22.67-5.1-34.15-.82-8.32-2.6-16.55-3.64-24.86-1.23-9.88-2.23-19.79-3.12-29.7-.57-6.38-.23-12.87-1.22-19.17-1.79-11.46-1.88-23.01-2.62-34.51-.64-9.89-.18-19.84-.21-29.77-.47-.64-.47-1.3-.05-1.96-.01-.59-.03-1.17-.04-1.76-.56-.68-.61-1.38-.08-2.09-.01-.54-.02-1.09-.03-1.63-.59-.72-.59-1.45-.05-2.19,0-.53,0-1.05,0-1.58-.56-.74-.56-1.47,0-2.21,0-.53.02-1.06.03-1.58-.81-1.99-.72-3.97.06-5.94,0-.56,0-1.12,0-1.68-.55-.71-.55-1.41,0-2.11,0-.56,0-1.12,0-1.68-.57-.7-.57-1.41-.02-2.12,0-.55,0-1.1,0-1.64-.57-.71-.58-1.44-.03-2.17.03-4.33.06-8.67.1-13-.51-.7-.52-1.4.02-2.09,0-.58.02-1.17.03-1.75-.24-.98-.48-1.96-.73-2.94-6.46-1.53-12.97-.85-19.47-.41-.77,20.2-3.57,40.17-7.45,61.06-2.78-5.12-2.82-9.92-3.53-14.41-1.95-12.36-3.4-24.79-4.97-37.2-.38-3.03.98-6.24-.97-9.13-.68-.23-1.36-.47-2.04-.7-.56.06-1.12.11-1.68.17-.49.5-1.01.53-1.57.11-.81-.06-1.62-.11-2.43-.17-.7.5-1.43.55-2.18.1-2,.19-4.01.37-6.01.56-.28,1.28-.57,2.56-.85,3.84.78,14.44,1.55,28.88,2.33,43.32.49.46.51.94.04,1.43.13,2.73.27,5.47.4,8.2.01.36.03.73.04,1.09.41,19.97.48,39.95-.89,59.87-.88,12.76-1.67,25.54-2.6,38.29-.74,10.18-1.88,20.28-3.03,30.4-1.27,11.2-2.61,22.39-4.23,33.55-1.05,7.23-2.66,14.38-4.02,21.56-.95,6.76-2.76,13.42-2.79,20.29-.02,4.02-2.65,5.09-6.09,5.13-13.34.15-25.51,3.96-37.02,10.33-9.8,5.43-17.08,13.43-24.5,21.34-1.61,2.46-3.22,4.92-4.83,7.39-2,6.41-5.46,12.34-6.42,19.12-.33,2.36-2.42,2.99-4.96,2.07-4.61-1.66-9.45-2.34-14.35-2.57-.37-.02-26.15-3.09-26.5-2.98-46.29,14.69-28.83,15.25-73.04-4.02C27.31,711.69,1.97,882.1,0,882.98c0,0,860.37,1.02,839.29-47.14,0,0-110.1-140.27-57.14-67.42Z"/>
      <path class="cls-6" d="m63.74,753.75l70.8,8.39c-10.56-8.96-22.8-15.53-36.81-18.82-11.3-2.65-22.97,1.79-33.98,10.43Z"/>
      <path class="cls-5" d="m844.46,846.28c-42.35-70.59-68.71-73.92-73.47-74.73-10.96-1.85-21.75-.55-32.47,1.59-1.14.23-12.68,4.13-13.81,3.93,2.56-3.87,12.85-11.53,15.03-12.81,5.56-3.26,14.14-5.61,20.37-5.61,10.7.71,17.65,1.2,33.06,9.56,23.84,12.95,38.3,36.82,47.04,62.51,2.45,7.2,4.25,13.14,4.25,15.57Z"/>
      <path class="cls-1" d="m272.11,240.48c.92-1.52.34-3.18.47-4.77.22-.36.44-.73.67-1.09.2-.2.31-.44.34-.71,1.47-.1,2.93-.28,4.4-.28,22.25.03,44.5.07,66.75.13,31.57.08,63.14.17,94.71.25.03,12.14.75,24.33-.11,36.41-.84,11.76-1.96,23.54-3.42,35.29-.71,5.71-1.71,11.43-2.06,17.2-.35,1.64-1.03,3.15-1.28,4.89-1.52,10.37-4.75,20.36-7.39,30.49-2.49,9.57-7.14,18.43-9.1,28.11-1.36,1.93-2.72,3.86-4.08,5.78-13.74,0-27.49.02-41.23,0-2.39,0-5.17.54-5.13-3.25.18-17.1-1.36-34.1-2.56-51.14-.69-9.71-1.63-19.28-3.93-28.75-.46-1.88-1.24-3.91-2.86-3.85-1.62.06-2.81,2.21-3.15,3.96-2.33,11.96-4.21,24.04-4.79,36.15-.66,13.96-2.01,27.94-1.1,41.93.27,4.2-1.54,5-5.42,4.96-13.58-.16-27.16-.03-40.74-.01-1.38-1.73-2.76-3.47-4.14-5.2-.83-4.93-2.94-9.46-4.76-14.07-6.3-15.94-9.83-32.57-13.18-49.25-1.53-8.21-2.4-16.52-3.69-24.74-1.76-11.25-1.46-22.55-2.41-33.8-.59-6.88-.1-13.96-.47-20.94,1.31-1.34.88-2.56-.31-3.71Z"/>
      <path class="cls-5" d="m439.45,234.01c-31.57-.09-63.14-.18-94.71-.25-22.25-.06-44.5-.1-66.75-.13-1.47,0-2.93.18-4.4.28-2.45-6.19-.12-12.47.23-18.59.47-8.07.44-16.24,2.33-24.29,2.9-12.35,4.43-24.98,7.51-37.32,1.1-4.4,1.92-8.88,2.74-13.34.63-3.39,4.46-5.1,4.72-8.64,1.74-.17,3.48-.33,5.23-.5.49,0,.98-.01,1.47-.02,1.3.1,2.59.3,3.88.3,23.5.03,47,.09,70.51.03,14.02-.03,28.05-.26,42.07-.4.82.04,1.64.08,2.46.13,1.7.07,3.4.14,5.09.21,3.41,5.38,5.03,11.31,6.31,17.46,2.36,11.37,5.36,22.62,7.66,34,1.33,6.59,2.27,13.32,2.59,20.02.5,10.34,1.84,20.67,1.05,31.05Zm-50.33-73.91c-1.49-1.6-2.94-3.24-4.47-4.81-12.02-12.38-31.84-15.21-47.79-6.85-14.69,7.7-23.19,26.3-18.98,41.94,4.85,18.05,19.96,28.26,36.69,29.09,20.16,1,35.61-12.28,40.15-28.45,1.48-5.28.64-10.66.73-16,4.91-5.77,1.82-13.06-6.34-14.94Z"/>
      <path class="cls-1" d="m635.51,604.93c-1.01,1.9-1.59,4.07-3.61,5.34-8.83-.13-17.67-.44-26.49-.29-3.73.07-4.71-1.12-4.82-4.56-.41-12.18-.77-24.39-1.94-36.51-.58-5.98-.24-12.37-3.71-17.91-2.26.69-2.55,2.46-3.02,4.11-2.39,8.47-2.51,17.22-2.92,25.86-.42,8.77-1.9,17.52-1.06,26.34.19,1.96-.56,2.73-2.79,2.69-9.81-.16-19.63-.13-29.45-.17-.64-.98-1.28-1.96-1.92-2.94-5.26-14.5-9.6-29.25-12.69-44.33-1.87-16.04-4.05-32.05-3.51-48.28.14-4.36-1.96-8.77.36-13.11.83.02,1.66.05,2.49.07.44.05.88.09,1.32.14,1.28.04,2.56.07,3.85.11,9.18.71,18.38.4,27.57.2.96,0,1.93.02,2.89.02.35,0,.69,0,1.04,0,.97,0,1.93.02,2.9.03.34,0,.69,0,1.03,0,.97,0,1.94,0,2.9,0,1.65,0,3.3,0,4.95-.01.97,0,1.94,0,2.9,0,.34,0,.69,0,1.03,0,13.55,0,27.1-.06,40.65.06,6.02.06,12.06-.53,18.07.33.61,14.86-.69,29.6-2.54,44.35-.65,5.2-1.9,10.48-1.13,15.82-.34.48-.85.92-.99,1.45-1.84,6.96-2.37,14.19-4.85,21.04-2.4,6.64-4.37,13.43-6.52,20.15Z"/>
      <path class="cls-5" d="m278.99,323.67c3.35,16.67,6.88,33.3,13.18,49.25,1.82,4.62,3.94,9.14,4.76,14.07-8.27,1.58-13.6,7.49-18.86,12.91-16.32,16.79-27.1,36.8-35.33,58.27-4.12,10.77-7.47,21.73-10.53,32.79-.24.87-.69,1.69-1.24,3.01-3.75-5.65-6.01-11.49-7.69-17.26-2.78-9.5-6.38-18.82-7.74-28.69-1.62-11.86-3-23.73-2.86-35.72.14-11.95.09-24,2.2-35.75,2.11-11.72,5.88-23.16,9.02-34.7,3.11-11.46,8.53-22.01,14.04-32.52.98-1.87,2.07-4.91,4.62-1.52,8.67,11.54,20.9,15.48,34.96,15.8.49.01.98.04,1.47.06Z"/>
      <path class="cls-5" d="m416.08,386.39c1.96-9.68,6.6-18.54,9.1-28.11,2.64-10.13,5.87-20.12,7.39-30.49.25-1.73.93-3.24,1.28-4.89,14.09,1.01,26.24-2.89,35.27-13.7,2.77-3.32,4.03-1.97,5.53.56,9.73,16.47,15.9,34.31,19.8,52.71,3,14.13,4.89,28.52,5.31,43.07.64,21.87-2.08,43.15-8.52,64.15-2.5,8.15-5.2,16.14-9.64,24.07-1.76-5.46-3.68-10.89-5.27-16.4-6.78-23.48-16.5-45.68-31.23-65.6-6.37-8.61-14.1-16.14-22.87-22.56-1.77-1.3-4.1-1.9-6.17-2.82Z"/>
      <path class="cls-1" d="m416.73,131.27c-.82-.04-1.64-.08-2.46-.12-1.84-.9-3.84-.63-5.78-.63-34.97,0-69.93.02-104.9.06-1.94,0-3.94-.25-5.78.63-.49,0-.98.01-1.47.02-1.86-.53-3.72-1.07-5.57-1.6,7.5-23.5,16.81-46.32,28-68.41,2.12-4.19,3.79-8.68,7.08-12.27,20.26.02,40.52.05,60.78.07,10.09,14.65,16.92,30.83,23.46,47.12,4.41,10.98,8.89,21.97,11.79,33.46-1.39,1.49-3.51.87-5.14,1.67Z"/>
      <path class="cls-5" d="m12.58,839.05c12.13-47.06,58.03-96.53,93.34-88.25,19.68,4.62,27.67,8.2,40.61,23.32,2.44,2.85,3.98,2.92,7.15.77,6.62-4.49,13.62-8.36,21.38-11.07,13.45-4.7,27.23-6.32,41.4-5.66.4-.38.76-.32,1.11.07,4.91.23,9.75.91,14.35,2.57,2.54.92,4.62.28,4.96-2.07.96-6.78,4.42-12.71,6.42-19.12-1.93-.25-3.89-.4-5.8-.78-16.38-3.28-32.8-3.48-48.92.88-11.53,3.12-23.51,5.74-31.97,15.24-2.88,3.23-5.9,1.58-8.21-1.26-8.46-10.42-19.31-18.05-31.07-24.56-18.73-10.37-39.13.95-57.92,16.46-27.82,23.9-41.49,66.22-47.18,93.26-.73,3.47-.85,4.94-1.55,9.2"/>
      <path class="cls-5" d="m580,501.73c-.97,0-1.93-.02-2.9-.03-.35,0-.69,0-1.04,0-.96,0-1.93-.02-2.89-.02-9.18-1.3-18.37-1.03-27.57-.2-1.28-.04-2.56-.07-3.85-.11-.44-.05-.88-.09-1.32-.14-.83-.02-1.66-.05-2.49-.07-.89-11.36.99-22.43,2.71-33.64,1.33-8.67,4.8-16.88,5.15-25.7.15-3.76,4.71-6.15,3.9-10.36,1.95.1,3.91.28,5.86.28,27.81.03,55.62.03,83.43.04.97,5.6,4.6,10.17,6.37,15.54,2.54,7.72,3.26,15.62,3.83,23.49.75,10.44,3.54,20.76,2.34,31.33-6.01-.87-12.05-.28-18.07-.33-13.55-.13-27.1-.06-40.65-.06-.34,0-.69,0-1.03,0-.97,0-1.94,0-2.9,0-1.65-.97-3.3-1-4.95.01-.97,0-1.94,0-2.9,0-.34,0-.69,0-1.03,0Zm14.64-60.61c-16.34.06-27.09,10.39-27.48,25.54-.33,13.09,15.1,25.33,27.44,25.02,15.92-.4,26.29-12.41,26.56-25.09.27-12.43-10.63-27.54-26.53-25.47Z"/>
      <path class="cls-5" d="m301.08,392.18c13.58-.02,27.16-.15,40.74.01,3.89.05,5.7-.76,5.42-4.96-.91-13.99.44-27.97,1.1-41.93.57-12.12,2.46-24.19,4.79-36.15.34-1.75,1.53-3.9,3.15-3.96,1.62-.06,2.4,1.97,2.86,3.85,2.3,9.47,3.25,19.04,3.93,28.75,1.2,17.04,2.74,34.05,2.56,51.14-.04,3.79,2.74,3.24,5.13,3.25,13.75.02,27.49,0,41.23,0-1.23,7.77-5.89,14-9.85,20.55-2.22.51-4.43.51-6.73.43-8.6-.28-17.21-.25-25.82-.3-2.49-.01-4.89.69-4.63,3.56.5,5.64-1.41,11.13-.81,16.74-.77,20.2-3.57,40.17-7.45,61.06-2.78-5.12-2.82-9.92-3.53-14.41-1.95-12.36-3.4-24.79-4.97-37.2-.38-3.03.98-6.24-.97-9.13-.08-.58-.16-1.16-.24-1.74-.17-6.02,1.33-12.12-.91-18.05-.35-.04-.69-.07-1.04-.11-.65-.08-1.29-.2-1.94-.22-11.07-.28-22.14-.55-33.2-.83-3.25-6.66-7.58-12.89-8.85-20.36Z"/>
      <path class="cls-5" d="m412.16,719.07c.82-1.91-1.27-3.34-.94-5.17,10.91-1.38,21.37.19,31.38,4.54,10.7,4.66,20.1,10.93,27.1,20.25,6.19,8.25,11.45,16.83,12.12,27.35.41,6.57,2.43,8.46,9.01,8.49,9.77.05,18.95,2.9,28.09,5.71,4.06,1.24,6.34.94,8.85-2.82,6.25-9.38,15.65-13.73,27.16-14.31,6.62-.33,12.95.49,19.08,2.87-.71,6.14-1.3,12.29-2.18,18.41-.77,5.36-1.85,10.68-2.81,16.1-2.21-.31-2.76-2.18-3.72-3.51-14.29-19.99-42.63-18.16-56.09.28-2.64,3.61-4.75,3.98-8.83,2.32-9.3-3.79-19.36-3.96-29.29-4.24-3.13-.09-4.63-.84-5.13-4.13-3.96-25.82-18.61-43.42-44.09-52.5-2.14-.76-4.44-1.17-5.96-3.03.04-.87-.05-1.7-.79-2.32-.11-.8-.22-1.61-.33-2.41.11-.31.08-.6-.11-.88-.44-1.97-.88-3.95-1.31-5.92-.1-.3-.19-.61-.29-.91-.07-.59-.15-1.19-.22-1.78.11-.89.03-1.72-.69-2.39Z"/>
      <path class="cls-5" d="m541.11,562.56c3.09,15.08,7.43,29.83,12.69,44.33-10.03,2.56-15.05,10.66-20.75,17.83-10.39,13.09-15.77,28.46-20.89,43.93-1.21,3.66-1.89,7.43-3.07,11.26-3.79-6.88-6.7-13.99-8.47-21.39-8.59-36.01-4.66-70.69,12.28-103.95,1.67-3.28,2.76-3.74,5.29-.73,5.88,7,13.59,9.93,22.92,8.72Z"/>
      <path class="cls-5" d="m635.51,604.93c2.16-6.72,4.12-13.51,6.52-20.15,2.48-6.86,3.01-14.08,4.85-21.04.14-.53.65-.97.99-1.45,8.79,1.38,16.07-1.26,22.11-7.52,3.84-3.98,4.34-3.88,6.54.86,11.36,24.44,17.7,49.98,16.16,76.84-.95,16.51-5.19,32.46-12.63,48.27-2.06-3.28-1.8-6.45-2.67-9.27-5.97-19.39-12.86-38.32-27.16-53.81-3.71-4.02-7.48-7.95-12.61-10.33-1.11-.52-1.92-1.17-2.11-2.39Z"/>
      <path class="cls-1" d="m639.01,431.77c-27.81-.01-55.62-.02-83.43-.04-1.95,0-3.91-.18-5.86-.28,3.89-15.56,10.49-30.14,17.42-44.59,1.94-4.04,2.9-8.76,7.29-11.39,13.64.05,27.28.1,40.93.14,4.05,4.64,6,10.35,8.63,15.71,5.85,11.91,9.97,24.48,15.11,36.66-.14.31-.09.58.16.82-.08.99-.15,1.98-.23,2.97Z"/>
      <path class="cls-5" d="m555.72,609.83c9.82.04,19.63.01,29.45.17,2.23.04,2.98-.73,2.79-2.69-.84-8.82.64-17.57,1.06-26.34.41-8.64.53-17.39,2.92-25.86.46-1.65.76-3.42,3.02-4.11,3.47,5.54,3.13,11.93,3.71,17.91,1.17,12.12,1.53,24.33,1.94,36.51.12,3.45,1.09,4.63,4.82,4.56,8.83-.16,17.66.16,26.49.29.22,5.7-3.46,9.65-6.68,13.8-2.11,0-4.23-.07-6.34.04-6.1.34-12.29-.9-18.31.91-.24.25-.47.49-.71.74.04,4.06.07,8.12.11,12.18-1.64,13.2-1.99,26.57-5.67,40.49-1.97-3.61-2.06-6.78-2.44-9.78-1.29-10.16-2.36-20.35-3.51-30.53.36-1.58.62-3.16-.34-4.65,0-.97,0-1.93.01-2.9l.23-.3-.17-.33c.42-1.43.76-2.86-.08-4.26-.32-.28-.64-.57-.96-.85-7.87-1.61-15.83-.27-23.74-.77-2.98-4.52-5.54-9.26-7.6-14.24Z"/>
      <path class="cls-5" d="m386.62,49.03c-20.26-.02-40.52-.05-60.78-.07-.45-1.67.32-3.07,1.09-4.47,7.65-13.84,16.16-27.17,25.11-40.26.63-.92,1.28-1.83,2.02-2.67,1.98-2.22,3.61-2.07,5.36.47,7.86,11.36,15.07,23.1,21.85,35.08,2.15,3.79,5.64,7.09,5.35,11.92Z"/>
      <path class="cls-5" d="m692.99,798.21c-6.42,7.73-13.16,15.27-16.43,24.92-1.19,3.5-2.9,1.87-4.62.47-9.14-7.47-18.59-14.47-30.15-18.22-2-.65-4.07-1.19-6.16-1.46-7.86-1.04-10.59-3.27-11.24-10.94-.34-3.93-1.11-7.8-1.33-11.72,12.81-1.3,25.57.51,37.76,3.32,6.78,1.56,17.9,6.35,21.74,7.96,3.11,2.7,6.48,3.87,10.43,5.67Z"/>
      <path class="cls-5" d="m318.53,675.1c-.95,6.76-2.76,13.42-2.79,20.29-.02,4.02-2.65,5.09-6.09,5.13-13.34.15-25.51,3.96-37.02,10.33-9.8,5.43-21.91,20.82-29.33,28.73-2.01-5.69,4.48-17.81,7.76-22.85,5.06-7.77,11.14-14.38,17.7-21.03,10.12-10.28,22.68-14.54,35.95-18.08,4.5-1.2,9.42-.59,13.82-2.52Z"/>
      <path class="cls-5" d="m615.34,375.61c-13.64-.05-27.28-.1-40.93-.14-.53-1.91-.43-3.7.71-5.44,5.68-8.65,11.34-17.31,16.98-25.98,1.18-1.81,2.54-3.48,4.29-.75,6.26,9.78,13.44,19.04,18.42,29.55.39.82.36,1.83.52,2.75Z"/>
      <path class="cls-4" d="m364.17,433.17c-.6-5.61,1.31-11.1.81-16.74-.25-2.87,2.14-3.58,4.63-3.56,8.61.05,17.22.02,25.82.3,2.3.07,4.51.08,6.73-.43,1.11,1.15,2.37,2.22,1.73,4.07-1.28,3.67-.57,7.46-.68,11.2-.15,5.26-1.38,6.35-6.83,5.38-4-.71-7.95-1.5-11.9.16-.28-.02-.57-.01-.85.03-6.46-1.53-12.97-.85-19.47-.41Z"/>
      <path class="cls-4" d="m309.93,412.54c11.07.27,22.14.54,33.2.83.65.02,1.29.14,1.94.22.35.04.69.07,1.04.11,2.24,5.93.74,12.03.91,18.05-.6.34-1.2.69-1.8,1.03-.56.06-1.12.11-1.68.17-.52.04-1.05.08-1.57.11-.81-.06-1.62-.11-2.43-.17-.73.03-1.46.07-2.18.1-2,.19-4.01.37-6.01.56-1.31.64-.88,1.93-1.19,2.95-.51-2.96-2.15-4.18-5.4-3.9-3.4.29-6.86-.03-10.29.09-3.38.11-4.7-1.37-4.62-4.55.13-5.2.07-10.4.09-15.59Z"/>
      <path class="cls-4" d="m600.58,625.03c6.02-1.81,12.21-.57,18.31-.91,2.11-.12,4.22-.04,6.34-.04,1.46,3.23.63,6.79,1.59,10.12.56,1.96-.94,2.83-2.78,2.95-1.61.11-3.27.26-4.85.03-3.2-.47-4.82.93-5.49,3.75-.37-1.71-.75-3.48-3.23-2.98-3.5.71-6.99-.2-10.48,0-.03-4.06-.07-8.12-.11-12.18.24-.25.47-.49.71-.74Z"/>
      <path class="cls-4" d="m588.01,625.69c.84,1.41.5,2.83.09,4.26-.11.2-.13.41-.06.63,0,.97,0,1.93-.01,2.9-1.45,1.22-2.56,2.65-3.1,4.46-2.59.11-5.18.21-7.78.32-3.13-2.04-6.63-.81-9.96-.98-2.56-.13-4.15-.81-3.85-3.52.36-3.24-1.61-6.46-.02-9.69,7.9.5,15.87-.84,23.74.77.32.28.64.57.96.85Z"/>
      <path class="cls-9" d="m272.11,240.48c1.19,1.15,1.62,2.36.31,3.71-1.52-1.13-1.42-2.38-.31-3.71Z"/>
      <path class="cls-9" d="m290.77,129.63c1.86.53,3.72,1.07,5.57,1.6-1.74.17-3.48.33-5.23.5-.76-.6-1.39-1.22-.35-2.1Z"/>
      <path class="cls-9" d="m384.22,470.69c-.81-1.99-.72-3.97.06-5.94.54,1.99.53,3.96-.06,5.94Z"/>
      <path class="cls-9" d="m408.47,131.03c-.31-1.11,12.01.06,13.4-1.42-.02.63-.03,1.25-.05,1.88-1.7-.07-11.66-.39-13.36-.46Z"/>
      <path class="cls-9" d="m330.15,436.5c.31-1.01-.12-2.31,1.19-2.95-.28,1.28-.57,2.56-.85,3.84-.11-.3-.23-.6-.34-.9Z"/>
      <path class="cls-9" d="m383.64,433.58c.28-.05.56-.06.85-.03-.04.99-.08,1.98-.12,2.97-.24-.98-.48-1.96-.73-2.94Z"/>
      <path class="cls-9" d="m384.31,440.35c-.51-.7-.52-1.4.02-2.09,0,.7-.02,1.39-.02,2.09Z"/>
      <path class="cls-9" d="m384.2,474.49c-.56-.74-.56-1.47,0-2.21,0,.74,0,1.48,0,2.21Z"/>
      <path class="cls-9" d="m384.25,455.52c-.57-.71-.58-1.44-.03-2.17.01.72.02,1.45.03,2.17Z"/>
      <path class="cls-9" d="m384.28,459.29c-.57-.7-.57-1.41-.02-2.12,0,.71.01,1.42.02,2.12Z"/>
      <path class="cls-2" d="m613.22,676c-.68-.58-.71-1.18-.04-1.79.01.6.03,1.19.04,1.79Z"/>
      <path class="cls-2" d="m613.07,664.6c-.57-.57-.59-1.14-.03-1.72,0,.57.02,1.15.03,1.72Z"/>
      <path class="cls-9" d="m384.25,478.26c-.59-.72-.59-1.45-.05-2.19.02.73.03,1.46.05,2.19Z"/>
      <path class="cls-9" d="m384.28,463.08c-.55-.71-.55-1.41,0-2.11,0,.7,0,1.41,0,2.11Z"/>
      <path class="cls-9" d="m384.36,481.99c-.56-.68-.6-1.38-.08-2.09.03.7.05,1.4.08,2.09Z"/>
      <path class="cls-9" d="m384.46,485.71c-.47-.64-.47-1.3-.05-1.96.02.65.04,1.31.05,1.96Z"/>
      <path class="cls-9" d="m273.24,234.62c-.22.36-.44.73-.67,1.09-.14-.57.13-.91.67-1.09Z"/>
      <path class="cls-2" d="m613.13,672.21c-.08-.19-.18-.38-.22-.58-.01-.07.12-.18.19-.26.19.27.2.55.03.84Z"/>
      <path class="cls-2" d="m613.16,656.1c-.07-.19-.17-.39-.19-.59-.01-.07.14-.17.21-.25.17.28.16.56-.02.84Z"/>
      <path class="cls-8" d="m613.64,646.65c-.19-.29-.19-.58.01-.87.08.2.19.4.23.61.01.07-.16.17-.24.26Z"/>
      <path class="cls-9" d="m333.25,490.35c.01.36.03.73.04,1.09-.1-.25-.22-.49-.27-.75-.02-.1.15-.23.23-.34Z"/>
      <path class="cls-9" d="m332.82,480.72c.49.46.51.94.04,1.43-.01-.47-.03-.95-.04-1.43Z"/>
      <path class="cls-8" d="m639.23,428.81c-.24-.24-.3-.51-.16-.82.12.18.27.35.35.54.02.06-.13.18-.2.28Z"/>
      <path class="cls-7" d="m584.92,637.94c.54-1.81,1.65-3.24,3.1-4.46.96,1.49.71,3.07.34,4.65-1.15-.07-2.3-.13-3.45-.19Z"/>
      <path class="cls-9" d="m345.21,432.78c.6-.34,1.2-.69,1.8-1.03.08.58.16,1.16.24,1.74-.68-.24-1.36-.47-2.04-.7Z"/>
      <path class="cls-2" d="m415.12,733.35c.73.63.83,1.45.79,2.32-.72-.63-.85-1.45-.79-2.32Z"/>
      <path class="cls-9" d="m337.35,433c.73-.03,1.46-.07,2.18-.1-.7.5-1.43.55-2.18.1Z"/>
      <path class="cls-2" d="m412.16,719.07c.72.66.81,1.5.69,2.39-.23-.8-.46-1.59-.69-2.39Z"/>
      <path class="cls-9" d="m216.46,758.15c.4-.38.76-.32,1.11.07-.37-.02-.74-.04-1.11-.07Z"/>
      <path class="cls-2" d="m414.68,730.07c.19.28.22.57.11.88-.1-.19-.23-.38-.29-.59-.02-.08.11-.19.18-.29Z"/>
      <path class="cls-2" d="m413.08,723.24c.1.3.19.61.29.91-.1-.3-.19-.61-.29-.91Z"/>
      <path class="cls-9" d="m341.96,433.06c.52-.04,1.05-.08,1.57-.11-.49.5-1.01.54-1.57.11Z"/>
      <path class="cls-4" d="m395.46,175.04c-.09,5.34.75,10.72-.73,16-4.54,16.17-19.99,29.44-40.15,28.45-16.74-.83-31.84-11.04-36.69-29.09-4.2-15.64,4.3-34.25,18.98-41.94,15.95-8.36,35.77-5.53,47.79,6.85,1.52,1.57,2.98,3.2,4.47,4.81,3.11,4.58,4.54,9.84,6.34,14.94Zm-34.41-21.23c-4.29-1.09-8.22.12-12.39,1.17-11.43,2.88-20.01,12.3-21.23,23.59-1.73,15.97,11.41,32.77,32.32,30.54,16.88-1.8,25.73-14.53,25.45-28.37-.28-13.79-11.05-23.55-22.38-26.47-.59-.16-1.18-.31-1.78-.47Z"/>
      <path class="cls-9" d="m291.02,131.15c1.85-.88,10.64-.56,12.58-.56,34.97-.05,69.93-.07,104.9-.06,1.94,0,3.94-.27,5.78.63-14.02.14-28.05.37-42.07.4-23.5.06-47,0-70.51-.03-1.3,0-9.39-.27-10.68-.37Z"/>
      <path class="cls-5" d="m395.46,175.04c-1.8-5.1-3.23-10.35-6.34-14.94,8.16,1.87,11.26,9.17,6.34,14.94Z"/>
      <path class="cls-9" d="m545.61,501.48c9.2-.83,18.39-1.09,27.57.2-9.19.2-18.38.51-27.57-.2Z"/>
      <path class="cls-9" d="m583.94,501.73c1.65-1.01,3.3-.98,4.95-.01-1.65,0-3.3,0-4.95.01Z"/>
      <path class="cls-9" d="m591.79,501.73c.34,0,.69,0,1.03,0-.34,0-.69,0-1.03,0Z"/>
      <path class="cls-9" d="m580,501.73c.34,0,.69,0,1.03,0-.34,0-.69,0-1.03,0Z"/>
      <path class="cls-9" d="m576.07,501.71c.35,0,.69,0,1.04,0-.35,0-.69,0-1.04,0Z"/>
      <path class="cls-9" d="m540.44,501.23c.44.05.88.09,1.32.14-.44-.05-.88-.09-1.32-.14Z"/>
      <path class="cls-4" d="m594.65,441.12c15.9-2.07,26.8,13.05,26.53,25.47-.28,12.68-10.64,24.69-26.56,25.09-12.35.31-27.77-11.93-27.44-25.02.38-15.15,11.13-25.48,27.48-25.54Zm19.72,24.86c-.04-11.29-8.76-19.42-20.79-19.37-10.01.05-19.49,9.51-19.45,19.41.05,9.89,9.9,19.65,19.87,19.67,11.81.02,20.41-8.3,20.37-19.71Z"/>
      <path class="cls-7" d="m346.1,413.7c-.35-.04-.69-.07-1.04-.11.35.04.69.07,1.04.11Z"/>
      <path class="cls-7" d="m588.03,630.58c-.07-.22-.05-.43.06-.63,0,0,.17.33.17.33l-.23.3Z"/>
      <path class="cls-7" d="m600.58,625.03c-.24.25-.47.5-.71.74.24-.25.47-.49.71-.74Z"/>
      <path class="cls-7" d="m588.01,625.69c-.32-.28-.64-.57-.96-.85.32.28.64.57.96.85Z"/>
      <path class="cls-5" d="m362.83,154.27c11.33,2.92,22.1,12.69,22.38,26.47.28,13.84-8.57,26.57-25.45,28.37-20.91,2.23-34.06-14.57-32.32-30.54,1.23-11.29,9.81-20.71,21.23-23.59,4.17-1.05,8.1-2.26,12.38-1.17.59.15,1.18.31,1.78.47Z"/>
      <path class="cls-7" d="m362.83,154.27c-.59-.16-1.19-.31-1.78-.47.59.16,1.19.31,1.78.47Z"/>
      <path class="cls-5" d="m614.37,465.98c.04,11.41-8.56,19.73-20.37,19.71-9.97-.02-19.82-9.78-19.87-19.67-.05-9.9,9.44-19.36,19.45-19.41,12.03-.06,20.76,8.07,20.79,19.37Z"/>
    </g>
  </g>
</svg>